<?xml version="1.0" standalone="no"?>
<!DOCTYPE svg PUBLIC "-//W3C//DTD SVG 1.1//EN"
  "http://www.w3.org/Graphics/SVG/1.1/DTD/svg11.dtd">
<!-- Created with matplotlib (http://matplotlib.sourceforge.net/) -->
<svg width="384pt" height="327pt" viewBox="0 0 384 327"
   xmlns="http://www.w3.org/2000/svg"
   xmlns:xlink="http://www.w3.org/1999/xlink"
   version="1.1"
   id="svg1">
<filter id="colorAdd"><feComposite in="SourceGraphic" in2="BackgroundImage" operator="arithmetic" k2="1" k3="1"/></filter>
<g id="figure1">
<g id="patch1">
<path style="fill: #ffffff; stroke: #ffffff; stroke-width: 1.000000; stroke-linejoin: round; stroke-linecap: square;  opacity: 1.000000"  d="M0.000000 327.217188L384.704688 327.217188L384.704688 0.000000
L0.000000 0.000000z"/>
</g>
<g id="axes1">
<g id="patch2">
<path style="fill: #ffffff; opacity: 1.000000"  d="M32.300000 303.339063L367.100000 303.339063L367.100000 15.339063
L32.300000 15.339063z"/>
</g>
<g id="line2d1">
<defs>
  <clipPath id="p09410e9c77ce68ed93cb4da3ea92046d">
<rect x="32.300000" y="15.339063" width="334.800000" height="288.000000"/>
  </clipPath>
</defs><path style="fill: none; stroke: #0000ff; stroke-width: 1.500000; stroke-linejoin: round; stroke-linecap: square;  opacity: 1.000000" clip-path="url(#p09410e9c77ce68ed93cb4da3ea92046d)" d="M32.300000 300.147995L35.681818 299.725055L39.063636 299.247041
L42.445455 298.707064L45.827273 298.097446L49.209091 297.409665
L52.590909 296.634280L55.972727 295.760879L59.354545 294.778019
L62.736364 293.673191L66.118182 292.432795L69.500000 291.042144
L72.881818 289.485506L76.263636 287.746188L79.645455 285.806687
L83.027273 283.648911L86.409091 281.254504L89.790909 278.605271
L93.172727 275.683756L96.554545 272.473958L99.936364 268.962228
L103.318182 265.138343L106.700000 260.996766L110.081818 256.538076
L113.463636 251.770536L116.845455 246.711735L120.227273 241.390225
L123.609091 235.847017L126.990909 230.136788L130.372727 224.328609
L133.754545 218.505996L137.136364 212.766080L140.518182 207.217740
L143.900000 201.978596L147.281818 197.170874L150.663636 192.916263
L154.045455 189.330051L157.427273 186.514954L160.809091 184.555147
L164.190909 183.511074L167.572727 183.415553L170.954545 184.271607
L174.336364 186.052264L177.718182 188.702346L181.100000 192.142042
L184.481818 196.271883L187.863636 200.978601L191.245455 206.141300
L194.627273 211.637425L198.009091 217.348067L201.390909 223.162321
L204.772727 228.980521L208.154545 234.716332L211.536364 240.297773
L214.918182 245.667326L218.300000 250.781331L221.681818 255.608858
L225.063636 260.130253L228.445455 264.335522L231.827273 268.222677
L235.209091 271.796151L238.590909 275.065336L241.972727 278.043289
L245.354545 280.745616L248.736364 283.189548L252.118182 285.393180
L255.500000 287.374875L258.881818 289.152807L262.263636 290.744617
L265.645455 292.167174L269.027273 293.436412L272.409091 294.567230
L275.790909 295.573448L279.172727 296.467792L282.554545 297.261915
L285.936364 297.966432L289.318182 298.590972L292.700000 299.144237
L296.081818 299.634067L299.463636 300.067507L302.845455 300.450867
L306.227273 300.789796L309.609091 301.089332L312.990909 301.353971
L316.372727 301.587711L319.754545 301.794108L323.136364 301.976322
L326.518182 302.137154L329.900000 302.279089L333.281818 302.404329
L336.663636 302.514822L340.045455 302.612295L343.427273 302.698271
L346.809091 302.774100L350.190909 302.840975L353.572727 302.899948
L356.954545 302.951950L360.336364 302.997803L363.718182 303.038231
L367.100000 303.073875"/>
</g>
<g id="line2d2">
<path style="fill: none; stroke: #008000; stroke-width: 1.500000; stroke-linejoin: round; stroke-linecap: square;  opacity: 1.000000" clip-path="url(#p09410e9c77ce68ed93cb4da3ea92046d)" d="M32.300000 300.385727L35.681818 300.131618L39.063636 299.856139
L42.445455 299.557584L45.827273 299.234125L49.209091 298.883808
L52.590909 298.504549L55.972727 298.094129L59.354545 297.650190
L62.736364 297.170229L66.118182 296.651604L69.500000 296.091524
L72.881818 295.487059L76.263636 294.835139L79.645455 294.132562
L83.027273 293.376004L86.409091 292.562033L89.790909 291.687126
L93.172727 290.747695L96.554545 289.740110L99.936364 288.660742
L103.318182 287.506003L106.700000 286.272396L110.081818 284.956579
L113.463636 283.555432L116.845455 282.066139L120.227273 280.486280
L123.609091 278.813932L126.990909 277.047781L130.372727 275.187248
L133.754545 273.232620L137.136364 271.185186L140.518182 269.047388
L143.900000 266.822962L147.281818 264.517082L150.663636 262.136501
L154.045455 259.689669L157.427273 257.186837L160.809091 254.640134
L164.190909 252.063609L167.572727 249.473220L170.954545 246.886789
L174.336364 244.323880L177.718182 241.805631L181.100000 239.354500
L184.481818 236.993964L187.863636 234.748132L191.245455 232.641310
L194.627273 230.697513L198.009091 228.939937L201.390909 227.390419
L204.772727 226.068884L208.154545 224.992830L211.536364 224.176844
L214.918182 223.632192L218.300000 223.366491L221.681818 223.383486
L225.063636 223.682937L228.445455 224.260626L231.827273 225.108483
L235.209091 226.214827L238.590909 227.564696L241.972727 229.140276
L245.354545 230.921383L248.736364 232.885989L252.118182 235.010771
L255.500000 237.271651L258.881818 239.644323L262.263636 242.104730
L265.645455 244.629501L269.027273 247.196320L272.409091 249.784226
L275.790909 252.373856L279.172727 254.947608L282.554545 257.489750
L285.936364 259.986465L289.318182 262.425852L292.700000 264.797881
L296.081818 267.094310L299.463636 269.308584L302.845455 271.435709
L306.227273 273.472111L309.609091 275.415495L312.990909 277.264698
L316.372727 279.019547L319.754545 280.680714L323.136364 282.249593
L326.518182 283.728172L329.900000 285.118924L333.281818 286.424706
L336.663636 287.648668L340.045455 288.794176L343.427273 289.864739
L346.809091 290.863953L350.190909 291.795451L353.572727 292.662857
L356.954545 293.469754L360.336364 294.219655L363.718182 294.915980
L367.100000 295.562039"/>
</g>
<g id="line2d3">
<path style="fill: none; stroke: #ff0000; stroke-width: 1.500000; stroke-linejoin: round; stroke-linecap: square;  opacity: 1.000000" clip-path="url(#p09410e9c77ce68ed93cb4da3ea92046d)" d="M32.300000 296.510337L35.681818 296.093040L39.063636 295.652094
L42.445455 295.186396L45.827273 294.694827L49.209091 294.176250
L52.590909 293.629519L55.972727 293.053485L59.354545 292.446998
L62.736364 291.808922L66.118182 291.138142L69.500000 290.433570
L72.881818 289.694162L76.263636 288.918928L79.645455 288.106948
L83.027273 287.257386L86.409091 286.369508L89.790909 285.442702
L93.172727 284.476494L96.554545 283.470574L99.936364 282.424819
L103.318182 281.339310L106.700000 280.214366L110.081818 279.050562
L113.463636 277.848762L116.845455 276.610137L120.227273 275.336199
L123.609091 274.028818L126.990909 272.690253L130.372727 271.323166
L133.754545 269.930646L137.136364 268.516222L140.518182 267.083873
L143.900000 265.638034L147.281818 264.183596L150.663636 262.725900
L154.045455 261.270719L157.427273 259.824240L160.809091 258.393029
L164.190909 256.983993L167.572727 255.604328L170.954545 254.261466
L174.336364 252.963001L177.718182 251.716619L181.100000 250.530011
L184.481818 249.410788L187.863636 248.366384L191.245455 247.403961
L194.627273 246.530310L198.009091 245.751756L201.390909 245.074063
L204.772727 244.502346L208.154545 244.040992L211.536364 243.693586
L214.918182 243.462859L218.300000 243.350635L221.681818 243.357807
L225.063636 243.484317L228.445455 243.729160L231.827273 244.090401
L235.209091 244.565205L238.590909 245.149885L241.972727 245.839965
L245.354545 246.630247L248.736364 247.514894L252.118182 248.487522
L255.500000 249.541289L258.881818 250.668995L262.263636 251.863180
L265.645455 253.116219L269.027273 254.420416L272.409091 255.768093
L275.790909 257.151671L279.172727 258.563743L282.554545 259.997145
L285.936364 261.445007L289.318182 262.900809L292.700000 264.358410
L296.081818 265.812089L299.463636 267.256559L302.845455 268.686982
L306.227273 270.098979L309.609091 271.488624L312.990909 272.852443
L316.372727 274.187399L319.754545 275.490878L323.136364 276.760670
L326.518182 277.994948L329.900000 279.192245L333.281818 280.351425
L336.663636 281.471662L340.045455 282.552412L343.427273 283.593387
L346.809091 284.594531L350.190909 285.555991L353.572727 286.478098
L356.954545 287.361343L360.336364 288.206355L363.718182 289.013879
L367.100000 289.784764"/>
</g>
<g id="line2d4">
<path style="fill: none; stroke: #00bfbf; stroke-width: 1.500000; stroke-linejoin: round; stroke-linecap: square;  opacity: 1.000000" clip-path="url(#p09410e9c77ce68ed93cb4da3ea92046d)" d="M32.300000 301.393348L35.681818 301.133910L39.063636 300.840246
L42.445455 300.507944L45.827273 300.132055L49.209091 299.707035
L52.590909 299.226680L55.972727 298.684070L59.354545 298.071496
L62.736364 297.380397L66.118182 296.601299L69.500000 295.723746
L72.881818 294.736255L76.263636 293.626273L79.645455 292.380155
L83.027273 290.983174L86.409091 289.419555L89.790909 287.672571
L93.172727 285.724689L96.554545 283.557801L99.936364 281.153546
L103.318182 278.493751L106.700000 275.560999L110.081818 272.339367
L113.463636 268.815320L116.845455 264.978798L120.227273 260.824479
L123.609091 256.353220L126.990909 251.573624L130.372727 246.503689
L133.754545 241.172436L137.136364 235.621402L140.518182 229.905832
L143.900000 224.095378L147.281818 218.274122L150.663636 212.539709
L154.045455 207.001433L157.427273 201.777185L160.809091 196.989274
L164.190909 192.759249L167.572727 189.202014L170.954545 186.419654
L174.336364 184.495489L177.718182 183.488922L181.100000 183.431607
L184.481818 184.325359L187.863636 186.142031L191.245455 188.825379
L194.627273 192.294702L198.009091 196.449864L201.390909 201.177172
L204.772727 206.355553L208.154545 211.862501L211.536364 217.579351
L214.918182 223.395593L218.300000 229.212062L221.681818 234.942984
L225.063636 240.516958L228.445455 245.877038L231.827273 250.980098
L235.209091 255.795687L238.590909 260.304571L241.972727 264.497105
L245.354545 268.371590L248.736364 271.932684L252.118182 275.189949
L255.500000 278.156563L258.881818 280.848216L262.263636 283.282185
L265.645455 285.476587L269.027273 287.449785L272.409091 289.219938
L275.790909 290.804660L279.172727 292.220785L282.554545 293.484207
L285.936364 294.609783L289.318182 295.611289L292.700000 296.501407
L296.081818 297.291749L299.463636 297.992888L302.845455 298.614416
L306.227273 299.164999L309.609091 299.652443L312.990909 300.083763
L316.372727 300.465242L319.754545 300.802502L323.136364 301.100560
L326.518182 301.363889L329.900000 301.596469L333.281818 301.801841
L336.663636 301.983148L340.045455 302.143179L343.427273 302.284406
L346.809091 302.409020L350.190909 302.518961L353.572727 302.615945
L356.954545 302.701490L360.336364 302.776940L363.718182 302.843479
L367.100000 302.902156"/>
</g>
<g id="line2d5">
<path style="fill: none; stroke: #bf00bf; stroke-width: 1.500000; stroke-linejoin: round; stroke-linecap: square;  opacity: 1.000000" clip-path="url(#p09410e9c77ce68ed93cb4da3ea92046d)" d="M32.300000 302.465250L35.681818 302.214817L39.063636 301.892827
L42.445455 301.478977L45.827273 300.947295L49.209091 300.264620
L52.590909 299.388715L55.972727 298.265941L59.354545 296.828464
L62.736364 294.990935L66.118182 292.646714L69.500000 289.663752
L72.881818 285.880504L76.263636 281.102507L79.645455 275.100813
L83.027273 267.614111L86.409091 258.357370L89.790909 247.040836
L93.172727 233.404118L96.554545 217.270079L99.936364 198.621133
L103.318182 177.694853L106.700000 155.085061L110.081818 131.819640
L113.463636 109.372044L116.845455 89.560665L120.227273 74.311695
L123.609091 65.311656L126.990909 63.638782L130.372727 69.500246
L133.754545 82.179435L137.136364 100.215307L140.518182 121.740356
L143.900000 144.851693L147.281818 167.903742L150.663636 189.668315
L154.045455 209.367377L157.427273 226.618533L160.809091 241.339672
L164.190909 253.648439L167.572727 263.776539L170.954545 272.006079
L174.336364 278.627286L177.718182 283.913483L181.100000 288.108429
L184.481818 291.421732L187.863636 294.029078L191.245455 296.075007
L194.627273 297.676825L198.009091 298.928758L201.390909 299.905908
L204.772727 300.667785L208.154545 301.261329L211.536364 301.723440
L214.918182 302.083043L218.300000 302.362770L221.681818 302.580298
L225.063636 302.749418L228.445455 302.880879L231.827273 302.983053
L235.209091 303.062456L238.590909 303.124157L241.972727 303.172099
L245.354545 303.209349L248.736364 303.238290L252.118182 303.260775
L255.500000 303.278244L258.881818 303.291815L262.263636 303.302358
L265.645455 303.310549L269.027273 303.316912L272.409091 303.321855
L275.790909 303.325695L279.172727 303.328678L282.554545 303.330995
L285.936364 303.332796L289.318182 303.334194L292.700000 303.335281
L296.081818 303.336125L299.463636 303.336780L302.845455 303.337290
L306.227273 303.337685L309.609091 303.337993L312.990909 303.338231
L316.372727 303.338417L319.754545 303.338561L323.136364 303.338673
L326.518182 303.338760L329.900000 303.338827L333.281818 303.338880
L336.663636 303.338921L340.045455 303.338952L343.427273 303.338977
L346.809091 303.338996L350.190909 303.339011L353.572727 303.339022
L356.954545 303.339031L360.336364 303.339038L363.718182 303.339044
L367.100000 303.339048"/>
</g>
<g id="GridlinesCollection1">
<defs>
<path id="coll0_0_377c9b9d9efd58ee5f3af5d2263588c4" d="M32.300000 -23.878125L32.300000 -311.878125"/>
<path id="coll0_1_6b186765cce6409fdd1761080c9f9eb8" d="M99.260000 -23.878125L99.260000 -311.878125"/>
<path id="coll0_2_b5e78bea0838202408c2a5d9438adc87" d="M166.220000 -23.878125L166.220000 -311.878125"/>
<path id="coll0_3_3d957175e000f419e4cbc1d5ebfcbe36" d="M233.180000 -23.878125L233.180000 -311.878125"/>
<path id="coll0_4_1616b9b65f34c5a6c776d78a401708bd" d="M300.140000 -23.878125L300.140000 -311.878125"/>
<path id="coll0_5_5b5d2351775bccfdb08bde82c14ad551" d="M367.100000 -23.878125L367.100000 -311.878125"/>
<path id="coll0_6_9f8f00a6d33ca9e69c895a37e90db3c2" d="M32.300000 -23.878125L367.100000 -23.878125"/>
<path id="coll0_7_c12148db1e136dde4849fb599cbefb72" d="M32.300000 -119.878125L367.100000 -119.878125"/>
<path id="coll0_8_e9e04723f77448816d6b1ca99a0de453" d="M32.300000 -215.878125L367.100000 -215.878125"/>
<path id="coll0_9_5f1ae09e006f2d7725bf522a6c5153cf" d="M32.300000 -311.878125L367.100000 -311.878125"/>
</defs>
<g clip-path="url(#p09410e9c77ce68ed93cb4da3ea92046d)"><use style="fill: none; stroke: #000000; stroke-width: 0.500000; stroke-linejoin: round; stroke-linecap: butt; stroke-dasharray: 1.000000,3.000000; stroke-dashoffset: 0.000000; opacity: 1.000000" xlink:href="#coll0_0_377c9b9d9efd58ee5f3af5d2263588c4" x="0.000000" y="327.217188"/>
</g><g clip-path="url(#p09410e9c77ce68ed93cb4da3ea92046d)"><use style="fill: none; stroke: #000000; stroke-width: 0.500000; stroke-linejoin: round; stroke-linecap: butt; stroke-dasharray: 1.000000,3.000000; stroke-dashoffset: 0.000000; opacity: 1.000000" xlink:href="#coll0_1_6b186765cce6409fdd1761080c9f9eb8" x="0.000000" y="327.217188"/>
</g><g clip-path="url(#p09410e9c77ce68ed93cb4da3ea92046d)"><use style="fill: none; stroke: #000000; stroke-width: 0.500000; stroke-linejoin: round; stroke-linecap: butt; stroke-dasharray: 1.000000,3.000000; stroke-dashoffset: 0.000000; opacity: 1.000000" xlink:href="#coll0_2_b5e78bea0838202408c2a5d9438adc87" x="0.000000" y="327.217188"/>
</g><g clip-path="url(#p09410e9c77ce68ed93cb4da3ea92046d)"><use style="fill: none; stroke: #000000; stroke-width: 0.500000; stroke-linejoin: round; stroke-linecap: butt; stroke-dasharray: 1.000000,3.000000; stroke-dashoffset: 0.000000; opacity: 1.000000" xlink:href="#coll0_3_3d957175e000f419e4cbc1d5ebfcbe36" x="0.000000" y="327.217188"/>
</g><g clip-path="url(#p09410e9c77ce68ed93cb4da3ea92046d)"><use style="fill: none; stroke: #000000; stroke-width: 0.500000; stroke-linejoin: round; stroke-linecap: butt; stroke-dasharray: 1.000000,3.000000; stroke-dashoffset: 0.000000; opacity: 1.000000" xlink:href="#coll0_4_1616b9b65f34c5a6c776d78a401708bd" x="0.000000" y="327.217188"/>
</g><g clip-path="url(#p09410e9c77ce68ed93cb4da3ea92046d)"><use style="fill: none; stroke: #000000; stroke-width: 0.500000; stroke-linejoin: round; stroke-linecap: butt; stroke-dasharray: 1.000000,3.000000; stroke-dashoffset: 0.000000; opacity: 1.000000" xlink:href="#coll0_5_5b5d2351775bccfdb08bde82c14ad551" x="0.000000" y="327.217188"/>
</g><g clip-path="url(#p09410e9c77ce68ed93cb4da3ea92046d)"><use style="fill: none; stroke: #000000; stroke-width: 0.500000; stroke-linejoin: round; stroke-linecap: butt; stroke-dasharray: 1.000000,3.000000; stroke-dashoffset: 0.000000; opacity: 1.000000" xlink:href="#coll0_6_9f8f00a6d33ca9e69c895a37e90db3c2" x="0.000000" y="327.217188"/>
</g><g clip-path="url(#p09410e9c77ce68ed93cb4da3ea92046d)"><use style="fill: none; stroke: #000000; stroke-width: 0.500000; stroke-linejoin: round; stroke-linecap: butt; stroke-dasharray: 1.000000,3.000000; stroke-dashoffset: 0.000000; opacity: 1.000000" xlink:href="#coll0_7_c12148db1e136dde4849fb599cbefb72" x="0.000000" y="327.217188"/>
</g><g clip-path="url(#p09410e9c77ce68ed93cb4da3ea92046d)"><use style="fill: none; stroke: #000000; stroke-width: 0.500000; stroke-linejoin: round; stroke-linecap: butt; stroke-dasharray: 1.000000,3.000000; stroke-dashoffset: 0.000000; opacity: 1.000000" xlink:href="#coll0_8_e9e04723f77448816d6b1ca99a0de453" x="0.000000" y="327.217188"/>
</g><g clip-path="url(#p09410e9c77ce68ed93cb4da3ea92046d)"><use style="fill: none; stroke: #000000; stroke-width: 0.500000; stroke-linejoin: round; stroke-linecap: butt; stroke-dasharray: 1.000000,3.000000; stroke-dashoffset: 0.000000; opacity: 1.000000" xlink:href="#coll0_9_5f1ae09e006f2d7725bf522a6c5153cf" x="0.000000" y="327.217188"/>
</g></g>
<g id="mpl_toolkits.axisartist.axis_artist1">
<g id="line2d6">
<path style="fill: none; stroke: #000000; stroke-width: 1.000000; stroke-linejoin: round; stroke-linecap: square;  opacity: 1.000000"  d="M367.100000 303.339063L367.100000 15.339063"/>
</g>
<defs><path id="md8f9f6eeb0297809f71d2fac1eaece30" d="M0.000000 0.000000L-4.000000 -0.000000"/></defs>
<g ><use style="fill: none; stroke: #000000; stroke-width: 0.500000; stroke-linejoin: round; stroke-linecap: butt;  opacity: 1.000000" xlink:href="#md8f9f6eeb0297809f71d2fac1eaece30" x="367.100000" y="303.339063"/>
<use style="fill: none; stroke: #000000; stroke-width: 0.500000; stroke-linejoin: round; stroke-linecap: butt;  opacity: 1.000000" xlink:href="#md8f9f6eeb0297809f71d2fac1eaece30" x="367.100000" y="303.339063"/>
</g><g ><use style="fill: none; stroke: #000000; stroke-width: 0.500000; stroke-linejoin: round; stroke-linecap: butt;  opacity: 1.000000" xlink:href="#md8f9f6eeb0297809f71d2fac1eaece30" x="367.100000" y="207.339063"/>
<use style="fill: none; stroke: #000000; stroke-width: 0.500000; stroke-linejoin: round; stroke-linecap: butt;  opacity: 1.000000" xlink:href="#md8f9f6eeb0297809f71d2fac1eaece30" x="367.100000" y="207.339063"/>
</g><g ><use style="fill: none; stroke: #000000; stroke-width: 0.500000; stroke-linejoin: round; stroke-linecap: butt;  opacity: 1.000000" xlink:href="#md8f9f6eeb0297809f71d2fac1eaece30" x="367.100000" y="111.339063"/>
<use style="fill: none; stroke: #000000; stroke-width: 0.500000; stroke-linejoin: round; stroke-linecap: butt;  opacity: 1.000000" xlink:href="#md8f9f6eeb0297809f71d2fac1eaece30" x="367.100000" y="111.339063"/>
</g><g ><use style="fill: none; stroke: #000000; stroke-width: 0.500000; stroke-linejoin: round; stroke-linecap: butt;  opacity: 1.000000" xlink:href="#md8f9f6eeb0297809f71d2fac1eaece30" x="367.100000" y="15.339063"/>
<use style="fill: none; stroke: #000000; stroke-width: 0.500000; stroke-linejoin: round; stroke-linecap: butt;  opacity: 1.000000" xlink:href="#md8f9f6eeb0297809f71d2fac1eaece30" x="367.100000" y="15.339063"/>
</g><defs><path id="me665fcc27f8377dc6bae9bae7bbdcc8a" d="M0.000000 0.000000L-2.000000 -0.000000"/></defs>
<g ><use style="fill: none; stroke: #000000; stroke-width: 0.500000; stroke-linejoin: round; stroke-linecap: butt;  opacity: 1.000000" xlink:href="#me665fcc27f8377dc6bae9bae7bbdcc8a" x="367.100000" y="279.339063"/>
<use style="fill: none; stroke: #000000; stroke-width: 0.500000; stroke-linejoin: round; stroke-linecap: butt;  opacity: 1.000000" xlink:href="#me665fcc27f8377dc6bae9bae7bbdcc8a" x="367.100000" y="279.339063"/>
</g><g ><use style="fill: none; stroke: #000000; stroke-width: 0.500000; stroke-linejoin: round; stroke-linecap: butt;  opacity: 1.000000" xlink:href="#me665fcc27f8377dc6bae9bae7bbdcc8a" x="367.100000" y="255.339063"/>
<use style="fill: none; stroke: #000000; stroke-width: 0.500000; stroke-linejoin: round; stroke-linecap: butt;  opacity: 1.000000" xlink:href="#me665fcc27f8377dc6bae9bae7bbdcc8a" x="367.100000" y="255.339063"/>
</g><g ><use style="fill: none; stroke: #000000; stroke-width: 0.500000; stroke-linejoin: round; stroke-linecap: butt;  opacity: 1.000000" xlink:href="#me665fcc27f8377dc6bae9bae7bbdcc8a" x="367.100000" y="231.339063"/>
<use style="fill: none; stroke: #000000; stroke-width: 0.500000; stroke-linejoin: round; stroke-linecap: butt;  opacity: 1.000000" xlink:href="#me665fcc27f8377dc6bae9bae7bbdcc8a" x="367.100000" y="231.339063"/>
</g><g ><use style="fill: none; stroke: #000000; stroke-width: 0.500000; stroke-linejoin: round; stroke-linecap: butt;  opacity: 1.000000" xlink:href="#me665fcc27f8377dc6bae9bae7bbdcc8a" x="367.100000" y="183.339063"/>
<use style="fill: none; stroke: #000000; stroke-width: 0.500000; stroke-linejoin: round; stroke-linecap: butt;  opacity: 1.000000" xlink:href="#me665fcc27f8377dc6bae9bae7bbdcc8a" x="367.100000" y="183.339063"/>
</g><g ><use style="fill: none; stroke: #000000; stroke-width: 0.500000; stroke-linejoin: round; stroke-linecap: butt;  opacity: 1.000000" xlink:href="#me665fcc27f8377dc6bae9bae7bbdcc8a" x="367.100000" y="159.339063"/>
<use style="fill: none; stroke: #000000; stroke-width: 0.500000; stroke-linejoin: round; stroke-linecap: butt;  opacity: 1.000000" xlink:href="#me665fcc27f8377dc6bae9bae7bbdcc8a" x="367.100000" y="159.339063"/>
</g><g ><use style="fill: none; stroke: #000000; stroke-width: 0.500000; stroke-linejoin: round; stroke-linecap: butt;  opacity: 1.000000" xlink:href="#me665fcc27f8377dc6bae9bae7bbdcc8a" x="367.100000" y="135.339063"/>
<use style="fill: none; stroke: #000000; stroke-width: 0.500000; stroke-linejoin: round; stroke-linecap: butt;  opacity: 1.000000" xlink:href="#me665fcc27f8377dc6bae9bae7bbdcc8a" x="367.100000" y="135.339063"/>
</g><g ><use style="fill: none; stroke: #000000; stroke-width: 0.500000; stroke-linejoin: round; stroke-linecap: butt;  opacity: 1.000000" xlink:href="#me665fcc27f8377dc6bae9bae7bbdcc8a" x="367.100000" y="87.339063"/>
<use style="fill: none; stroke: #000000; stroke-width: 0.500000; stroke-linejoin: round; stroke-linecap: butt;  opacity: 1.000000" xlink:href="#me665fcc27f8377dc6bae9bae7bbdcc8a" x="367.100000" y="87.339063"/>
</g><g ><use style="fill: none; stroke: #000000; stroke-width: 0.500000; stroke-linejoin: round; stroke-linecap: butt;  opacity: 1.000000" xlink:href="#me665fcc27f8377dc6bae9bae7bbdcc8a" x="367.100000" y="63.339063"/>
<use style="fill: none; stroke: #000000; stroke-width: 0.500000; stroke-linejoin: round; stroke-linecap: butt;  opacity: 1.000000" xlink:href="#me665fcc27f8377dc6bae9bae7bbdcc8a" x="367.100000" y="63.339063"/>
</g><g ><use style="fill: none; stroke: #000000; stroke-width: 0.500000; stroke-linejoin: round; stroke-linecap: butt;  opacity: 1.000000" xlink:href="#me665fcc27f8377dc6bae9bae7bbdcc8a" x="367.100000" y="39.339063"/>
<use style="fill: none; stroke: #000000; stroke-width: 0.500000; stroke-linejoin: round; stroke-linecap: butt;  opacity: 1.000000" xlink:href="#me665fcc27f8377dc6bae9bae7bbdcc8a" x="367.100000" y="39.339063"/>
</g></g>
<g id="mpl_toolkits.axisartist.axis_artist2">
<g id="line2d7">
<path style="fill: none; stroke: #000000; stroke-width: 1.000000; stroke-linejoin: round; stroke-linecap: square;  opacity: 1.000000"  d="M32.300000 303.339063L367.100000 303.339063"/>
</g>
<defs><path id="m30e32995789d870ad79a2e54c91cf9c6" d="M0.000000 0.000000L0.000000 -4.000000"/></defs>
<g ><use style="fill: none; stroke: #000000; stroke-width: 0.500000; stroke-linejoin: round; stroke-linecap: butt;  opacity: 1.000000" xlink:href="#m30e32995789d870ad79a2e54c91cf9c6" x="32.300000" y="303.339063"/>
<use style="fill: none; stroke: #000000; stroke-width: 0.500000; stroke-linejoin: round; stroke-linecap: butt;  opacity: 1.000000" xlink:href="#m30e32995789d870ad79a2e54c91cf9c6" x="32.300000" y="303.339063"/>
</g><g ><use style="fill: none; stroke: #000000; stroke-width: 0.500000; stroke-linejoin: round; stroke-linecap: butt;  opacity: 1.000000" xlink:href="#m30e32995789d870ad79a2e54c91cf9c6" x="99.260000" y="303.339063"/>
<use style="fill: none; stroke: #000000; stroke-width: 0.500000; stroke-linejoin: round; stroke-linecap: butt;  opacity: 1.000000" xlink:href="#m30e32995789d870ad79a2e54c91cf9c6" x="99.260000" y="303.339063"/>
</g><g ><use style="fill: none; stroke: #000000; stroke-width: 0.500000; stroke-linejoin: round; stroke-linecap: butt;  opacity: 1.000000" xlink:href="#m30e32995789d870ad79a2e54c91cf9c6" x="166.220000" y="303.339063"/>
<use style="fill: none; stroke: #000000; stroke-width: 0.500000; stroke-linejoin: round; stroke-linecap: butt;  opacity: 1.000000" xlink:href="#m30e32995789d870ad79a2e54c91cf9c6" x="166.220000" y="303.339063"/>
</g><g ><use style="fill: none; stroke: #000000; stroke-width: 0.500000; stroke-linejoin: round; stroke-linecap: butt;  opacity: 1.000000" xlink:href="#m30e32995789d870ad79a2e54c91cf9c6" x="233.180000" y="303.339063"/>
<use style="fill: none; stroke: #000000; stroke-width: 0.500000; stroke-linejoin: round; stroke-linecap: butt;  opacity: 1.000000" xlink:href="#m30e32995789d870ad79a2e54c91cf9c6" x="233.180000" y="303.339063"/>
</g><g ><use style="fill: none; stroke: #000000; stroke-width: 0.500000; stroke-linejoin: round; stroke-linecap: butt;  opacity: 1.000000" xlink:href="#m30e32995789d870ad79a2e54c91cf9c6" x="300.140000" y="303.339063"/>
<use style="fill: none; stroke: #000000; stroke-width: 0.500000; stroke-linejoin: round; stroke-linecap: butt;  opacity: 1.000000" xlink:href="#m30e32995789d870ad79a2e54c91cf9c6" x="300.140000" y="303.339063"/>
</g><g ><use style="fill: none; stroke: #000000; stroke-width: 0.500000; stroke-linejoin: round; stroke-linecap: butt;  opacity: 1.000000" xlink:href="#m30e32995789d870ad79a2e54c91cf9c6" x="367.100000" y="303.339063"/>
<use style="fill: none; stroke: #000000; stroke-width: 0.500000; stroke-linejoin: round; stroke-linecap: butt;  opacity: 1.000000" xlink:href="#m30e32995789d870ad79a2e54c91cf9c6" x="367.100000" y="303.339063"/>
</g><g id="text1">
<defs>
<path id="c_6a8d56c819c37117ab4cf023bec22a5a" d="M10.593750 -35.500000l62.593750 0.000000l0.000000 8.296875l-62.593750 0.000000z"/>
<path id="c_1260a2df50f305f3db244e29828f968e" d="M10.796875 -72.906250l38.718750 0.000000l0.000000 8.312500l-29.687500 0.000000l0.000000 17.859375q2.140625 -0.734375 4.281250 -1.093750q2.156250 -0.359375 4.312500 -0.359375q12.203125 0.000000 19.328125 6.687500q7.140625 6.687500 7.140625 18.109375q0.000000 11.765625 -7.328125 18.296875q-7.328125 6.515625 -20.656250 6.515625q-4.593750 0.000000 -9.359375 -0.781250q-4.750000 -0.781250 -9.828125 -2.343750l0.000000 -9.921875q4.390625 2.390625 9.078125 3.562500q4.687500 1.171875 9.906250 1.171875q8.453125 0.000000 13.375000 -4.437500q4.937500 -4.437500 4.937500 -12.062500q0.000000 -7.609375 -4.937500 -12.046875q-4.921875 -4.453125 -13.375000 -4.453125q-3.953125 0.000000 -7.890625 0.875000q-3.921875 0.875000 -8.015625 2.734375z"/>
</defs>
<g style="fill: #000000; opacity: 1.000000" transform="translate(24.604688,316.245313)scale(0.120000)">
<use xlink:href="#c_6a8d56c819c37117ab4cf023bec22a5a"/>
<use xlink:href="#c_1260a2df50f305f3db244e29828f968e" x="83.789062"/>
</g>
</g>
<g id="text2">
<defs>
<path id="c_7a2040fe3b94fcd41d0a72c84e93b115" d="M31.781250 -66.406250q-7.609375 0.000000 -11.453125 7.500000q-3.828125 7.484375 -3.828125 22.531250q0.000000 14.984375 3.828125 22.484375q3.843750 7.500000 11.453125 7.500000q7.671875 0.000000 11.500000 -7.500000q3.843750 -7.500000 3.843750 -22.484375q0.000000 -15.046875 -3.843750 -22.531250q-3.828125 -7.500000 -11.500000 -7.500000M31.781250 -74.218750q12.265625 0.000000 18.734375 9.703125q6.468750 9.687500 6.468750 28.140625q0.000000 18.406250 -6.468750 28.109375q-6.468750 9.687500 -18.734375 9.687500q-12.250000 0.000000 -18.718750 -9.687500q-6.468750 -9.703125 -6.468750 -28.109375q0.000000 -18.453125 6.468750 -28.140625q6.468750 -9.703125 18.718750 -9.703125"/>
</defs>
<g style="fill: #000000; opacity: 1.000000" transform="translate(96.236563,316.245313)scale(0.120000)">
<use xlink:href="#c_7a2040fe3b94fcd41d0a72c84e93b115"/>
</g>
</g>
<g id="text3">
<g style="fill: #000000; opacity: 1.000000" transform="translate(163.384063,316.245313)scale(0.120000)">
<use xlink:href="#c_1260a2df50f305f3db244e29828f968e"/>
</g>
</g>
<g id="text4">
<defs>
<path id="c_42baa63129a918535c52adb20d687ea7" d="M12.406250 -8.296875l16.109375 0.000000l0.000000 -55.625000l-17.531250 3.515625l0.000000 -8.984375l17.437500 -3.515625l9.859375 0.000000l0.000000 64.609375l16.109375 0.000000l0.000000 8.296875l-41.984375 0.000000z"/>
</defs>
<g style="fill: #000000; opacity: 1.000000" transform="translate(226.594063,316.245313)scale(0.120000)">
<use xlink:href="#c_42baa63129a918535c52adb20d687ea7"/>
<use xlink:href="#c_7a2040fe3b94fcd41d0a72c84e93b115" x="63.623047"/>
</g>
</g>
<g id="text5">
<g style="fill: #000000; opacity: 1.000000" transform="translate(293.679063,316.245313)scale(0.120000)">
<use xlink:href="#c_42baa63129a918535c52adb20d687ea7"/>
<use xlink:href="#c_1260a2df50f305f3db244e29828f968e" x="63.623047"/>
</g>
</g>
<g id="text6">
<defs>
<path id="c_ed3f3ed3ebfbd18bcb9c012009a68ad1" d="M19.187500 -8.296875l34.421875 0.000000l0.000000 8.296875l-46.281250 0.000000l0.000000 -8.296875q5.609375 -5.812500 15.296875 -15.593750q9.703125 -9.796875 12.187500 -12.640625q4.734375 -5.312500 6.609375 -9.000000q1.890625 -3.687500 1.890625 -7.250000q0.000000 -5.812500 -4.078125 -9.468750q-4.078125 -3.671875 -10.625000 -3.671875q-4.640625 0.000000 -9.796875 1.609375q-5.140625 1.609375 -11.000000 4.890625l0.000000 -9.968750q5.953125 -2.390625 11.125000 -3.609375q5.187500 -1.218750 9.484375 -1.218750q11.328125 0.000000 18.062500 5.671875q6.734375 5.656250 6.734375 15.125000q0.000000 4.500000 -1.687500 8.531250q-1.671875 4.015625 -6.125000 9.484375q-1.218750 1.421875 -7.765625 8.187500q-6.531250 6.765625 -18.453125 18.921875"/>
</defs>
<g style="fill: #000000; opacity: 1.000000" transform="translate(360.295313,316.245313)scale(0.120000)">
<use xlink:href="#c_ed3f3ed3ebfbd18bcb9c012009a68ad1"/>
<use xlink:href="#c_7a2040fe3b94fcd41d0a72c84e93b115" x="63.623047"/>
</g>
</g>
<defs><path id="m3b2d125790092c17af877e29e2858cbc" d="M0.000000 0.000000L0.000000 -2.000000"/></defs>
<g ><use style="fill: none; stroke: #000000; stroke-width: 0.500000; stroke-linejoin: round; stroke-linecap: butt;  opacity: 1.000000" xlink:href="#m3b2d125790092c17af877e29e2858cbc" x="45.692000" y="303.339063"/>
<use style="fill: none; stroke: #000000; stroke-width: 0.500000; stroke-linejoin: round; stroke-linecap: butt;  opacity: 1.000000" xlink:href="#m3b2d125790092c17af877e29e2858cbc" x="45.692000" y="303.339063"/>
</g><g ><use style="fill: none; stroke: #000000; stroke-width: 0.500000; stroke-linejoin: round; stroke-linecap: butt;  opacity: 1.000000" xlink:href="#m3b2d125790092c17af877e29e2858cbc" x="59.084000" y="303.339063"/>
<use style="fill: none; stroke: #000000; stroke-width: 0.500000; stroke-linejoin: round; stroke-linecap: butt;  opacity: 1.000000" xlink:href="#m3b2d125790092c17af877e29e2858cbc" x="59.084000" y="303.339063"/>
</g><g ><use style="fill: none; stroke: #000000; stroke-width: 0.500000; stroke-linejoin: round; stroke-linecap: butt;  opacity: 1.000000" xlink:href="#m3b2d125790092c17af877e29e2858cbc" x="72.476000" y="303.339063"/>
<use style="fill: none; stroke: #000000; stroke-width: 0.500000; stroke-linejoin: round; stroke-linecap: butt;  opacity: 1.000000" xlink:href="#m3b2d125790092c17af877e29e2858cbc" x="72.476000" y="303.339063"/>
</g><g ><use style="fill: none; stroke: #000000; stroke-width: 0.500000; stroke-linejoin: round; stroke-linecap: butt;  opacity: 1.000000" xlink:href="#m3b2d125790092c17af877e29e2858cbc" x="85.868000" y="303.339063"/>
<use style="fill: none; stroke: #000000; stroke-width: 0.500000; stroke-linejoin: round; stroke-linecap: butt;  opacity: 1.000000" xlink:href="#m3b2d125790092c17af877e29e2858cbc" x="85.868000" y="303.339063"/>
</g><g ><use style="fill: none; stroke: #000000; stroke-width: 0.500000; stroke-linejoin: round; stroke-linecap: butt;  opacity: 1.000000" xlink:href="#m3b2d125790092c17af877e29e2858cbc" x="112.652000" y="303.339063"/>
<use style="fill: none; stroke: #000000; stroke-width: 0.500000; stroke-linejoin: round; stroke-linecap: butt;  opacity: 1.000000" xlink:href="#m3b2d125790092c17af877e29e2858cbc" x="112.652000" y="303.339063"/>
</g><g ><use style="fill: none; stroke: #000000; stroke-width: 0.500000; stroke-linejoin: round; stroke-linecap: butt;  opacity: 1.000000" xlink:href="#m3b2d125790092c17af877e29e2858cbc" x="126.044000" y="303.339063"/>
<use style="fill: none; stroke: #000000; stroke-width: 0.500000; stroke-linejoin: round; stroke-linecap: butt;  opacity: 1.000000" xlink:href="#m3b2d125790092c17af877e29e2858cbc" x="126.044000" y="303.339063"/>
</g><g ><use style="fill: none; stroke: #000000; stroke-width: 0.500000; stroke-linejoin: round; stroke-linecap: butt;  opacity: 1.000000" xlink:href="#m3b2d125790092c17af877e29e2858cbc" x="139.436000" y="303.339063"/>
<use style="fill: none; stroke: #000000; stroke-width: 0.500000; stroke-linejoin: round; stroke-linecap: butt;  opacity: 1.000000" xlink:href="#m3b2d125790092c17af877e29e2858cbc" x="139.436000" y="303.339063"/>
</g><g ><use style="fill: none; stroke: #000000; stroke-width: 0.500000; stroke-linejoin: round; stroke-linecap: butt;  opacity: 1.000000" xlink:href="#m3b2d125790092c17af877e29e2858cbc" x="152.828000" y="303.339063"/>
<use style="fill: none; stroke: #000000; stroke-width: 0.500000; stroke-linejoin: round; stroke-linecap: butt;  opacity: 1.000000" xlink:href="#m3b2d125790092c17af877e29e2858cbc" x="152.828000" y="303.339063"/>
</g><g ><use style="fill: none; stroke: #000000; stroke-width: 0.500000; stroke-linejoin: round; stroke-linecap: butt;  opacity: 1.000000" xlink:href="#m3b2d125790092c17af877e29e2858cbc" x="179.612000" y="303.339063"/>
<use style="fill: none; stroke: #000000; stroke-width: 0.500000; stroke-linejoin: round; stroke-linecap: butt;  opacity: 1.000000" xlink:href="#m3b2d125790092c17af877e29e2858cbc" x="179.612000" y="303.339063"/>
</g><g ><use style="fill: none; stroke: #000000; stroke-width: 0.500000; stroke-linejoin: round; stroke-linecap: butt;  opacity: 1.000000" xlink:href="#m3b2d125790092c17af877e29e2858cbc" x="193.004000" y="303.339063"/>
<use style="fill: none; stroke: #000000; stroke-width: 0.500000; stroke-linejoin: round; stroke-linecap: butt;  opacity: 1.000000" xlink:href="#m3b2d125790092c17af877e29e2858cbc" x="193.004000" y="303.339063"/>
</g><g ><use style="fill: none; stroke: #000000; stroke-width: 0.500000; stroke-linejoin: round; stroke-linecap: butt;  opacity: 1.000000" xlink:href="#m3b2d125790092c17af877e29e2858cbc" x="206.396000" y="303.339063"/>
<use style="fill: none; stroke: #000000; stroke-width: 0.500000; stroke-linejoin: round; stroke-linecap: butt;  opacity: 1.000000" xlink:href="#m3b2d125790092c17af877e29e2858cbc" x="206.396000" y="303.339063"/>
</g><g ><use style="fill: none; stroke: #000000; stroke-width: 0.500000; stroke-linejoin: round; stroke-linecap: butt;  opacity: 1.000000" xlink:href="#m3b2d125790092c17af877e29e2858cbc" x="219.788000" y="303.339063"/>
<use style="fill: none; stroke: #000000; stroke-width: 0.500000; stroke-linejoin: round; stroke-linecap: butt;  opacity: 1.000000" xlink:href="#m3b2d125790092c17af877e29e2858cbc" x="219.788000" y="303.339063"/>
</g><g ><use style="fill: none; stroke: #000000; stroke-width: 0.500000; stroke-linejoin: round; stroke-linecap: butt;  opacity: 1.000000" xlink:href="#m3b2d125790092c17af877e29e2858cbc" x="246.572000" y="303.339063"/>
<use style="fill: none; stroke: #000000; stroke-width: 0.500000; stroke-linejoin: round; stroke-linecap: butt;  opacity: 1.000000" xlink:href="#m3b2d125790092c17af877e29e2858cbc" x="246.572000" y="303.339063"/>
</g><g ><use style="fill: none; stroke: #000000; stroke-width: 0.500000; stroke-linejoin: round; stroke-linecap: butt;  opacity: 1.000000" xlink:href="#m3b2d125790092c17af877e29e2858cbc" x="259.964000" y="303.339063"/>
<use style="fill: none; stroke: #000000; stroke-width: 0.500000; stroke-linejoin: round; stroke-linecap: butt;  opacity: 1.000000" xlink:href="#m3b2d125790092c17af877e29e2858cbc" x="259.964000" y="303.339063"/>
</g><g ><use style="fill: none; stroke: #000000; stroke-width: 0.500000; stroke-linejoin: round; stroke-linecap: butt;  opacity: 1.000000" xlink:href="#m3b2d125790092c17af877e29e2858cbc" x="273.356000" y="303.339063"/>
<use style="fill: none; stroke: #000000; stroke-width: 0.500000; stroke-linejoin: round; stroke-linecap: butt;  opacity: 1.000000" xlink:href="#m3b2d125790092c17af877e29e2858cbc" x="273.356000" y="303.339063"/>
</g><g ><use style="fill: none; stroke: #000000; stroke-width: 0.500000; stroke-linejoin: round; stroke-linecap: butt;  opacity: 1.000000" xlink:href="#m3b2d125790092c17af877e29e2858cbc" x="286.748000" y="303.339063"/>
<use style="fill: none; stroke: #000000; stroke-width: 0.500000; stroke-linejoin: round; stroke-linecap: butt;  opacity: 1.000000" xlink:href="#m3b2d125790092c17af877e29e2858cbc" x="286.748000" y="303.339063"/>
</g><g ><use style="fill: none; stroke: #000000; stroke-width: 0.500000; stroke-linejoin: round; stroke-linecap: butt;  opacity: 1.000000" xlink:href="#m3b2d125790092c17af877e29e2858cbc" x="313.532000" y="303.339063"/>
<use style="fill: none; stroke: #000000; stroke-width: 0.500000; stroke-linejoin: round; stroke-linecap: butt;  opacity: 1.000000" xlink:href="#m3b2d125790092c17af877e29e2858cbc" x="313.532000" y="303.339063"/>
</g><g ><use style="fill: none; stroke: #000000; stroke-width: 0.500000; stroke-linejoin: round; stroke-linecap: butt;  opacity: 1.000000" xlink:href="#m3b2d125790092c17af877e29e2858cbc" x="326.924000" y="303.339063"/>
<use style="fill: none; stroke: #000000; stroke-width: 0.500000; stroke-linejoin: round; stroke-linecap: butt;  opacity: 1.000000" xlink:href="#m3b2d125790092c17af877e29e2858cbc" x="326.924000" y="303.339063"/>
</g><g ><use style="fill: none; stroke: #000000; stroke-width: 0.500000; stroke-linejoin: round; stroke-linecap: butt;  opacity: 1.000000" xlink:href="#m3b2d125790092c17af877e29e2858cbc" x="340.316000" y="303.339063"/>
<use style="fill: none; stroke: #000000; stroke-width: 0.500000; stroke-linejoin: round; stroke-linecap: butt;  opacity: 1.000000" xlink:href="#m3b2d125790092c17af877e29e2858cbc" x="340.316000" y="303.339063"/>
</g><g ><use style="fill: none; stroke: #000000; stroke-width: 0.500000; stroke-linejoin: round; stroke-linecap: butt;  opacity: 1.000000" xlink:href="#m3b2d125790092c17af877e29e2858cbc" x="353.708000" y="303.339063"/>
<use style="fill: none; stroke: #000000; stroke-width: 0.500000; stroke-linejoin: round; stroke-linecap: butt;  opacity: 1.000000" xlink:href="#m3b2d125790092c17af877e29e2858cbc" x="353.708000" y="303.339063"/>
</g></g>
<g id="mpl_toolkits.axisartist.axis_artist3">
<g id="line2d8">
<path style="fill: none; stroke: #000000; stroke-width: 1.000000; stroke-linejoin: round; stroke-linecap: square;  opacity: 1.000000"  d="M32.300000 15.339063L367.100000 15.339063"/>
</g>
<defs><path id="mbea78f1d724f733bed82a5c1aaa4c83c" d="M0.000000 0.000000L-0.000000 4.000000"/></defs>
<g ><use style="fill: none; stroke: #000000; stroke-width: 0.500000; stroke-linejoin: round; stroke-linecap: butt;  opacity: 1.000000" xlink:href="#mbea78f1d724f733bed82a5c1aaa4c83c" x="32.300000" y="15.339063"/>
<use style="fill: none; stroke: #000000; stroke-width: 0.500000; stroke-linejoin: round; stroke-linecap: butt;  opacity: 1.000000" xlink:href="#mbea78f1d724f733bed82a5c1aaa4c83c" x="32.300000" y="15.339063"/>
</g><g ><use style="fill: none; stroke: #000000; stroke-width: 0.500000; stroke-linejoin: round; stroke-linecap: butt;  opacity: 1.000000" xlink:href="#mbea78f1d724f733bed82a5c1aaa4c83c" x="99.260000" y="15.339063"/>
<use style="fill: none; stroke: #000000; stroke-width: 0.500000; stroke-linejoin: round; stroke-linecap: butt;  opacity: 1.000000" xlink:href="#mbea78f1d724f733bed82a5c1aaa4c83c" x="99.260000" y="15.339063"/>
</g><g ><use style="fill: none; stroke: #000000; stroke-width: 0.500000; stroke-linejoin: round; stroke-linecap: butt;  opacity: 1.000000" xlink:href="#mbea78f1d724f733bed82a5c1aaa4c83c" x="166.220000" y="15.339063"/>
<use style="fill: none; stroke: #000000; stroke-width: 0.500000; stroke-linejoin: round; stroke-linecap: butt;  opacity: 1.000000" xlink:href="#mbea78f1d724f733bed82a5c1aaa4c83c" x="166.220000" y="15.339063"/>
</g><g ><use style="fill: none; stroke: #000000; stroke-width: 0.500000; stroke-linejoin: round; stroke-linecap: butt;  opacity: 1.000000" xlink:href="#mbea78f1d724f733bed82a5c1aaa4c83c" x="233.180000" y="15.339063"/>
<use style="fill: none; stroke: #000000; stroke-width: 0.500000; stroke-linejoin: round; stroke-linecap: butt;  opacity: 1.000000" xlink:href="#mbea78f1d724f733bed82a5c1aaa4c83c" x="233.180000" y="15.339063"/>
</g><g ><use style="fill: none; stroke: #000000; stroke-width: 0.500000; stroke-linejoin: round; stroke-linecap: butt;  opacity: 1.000000" xlink:href="#mbea78f1d724f733bed82a5c1aaa4c83c" x="300.140000" y="15.339063"/>
<use style="fill: none; stroke: #000000; stroke-width: 0.500000; stroke-linejoin: round; stroke-linecap: butt;  opacity: 1.000000" xlink:href="#mbea78f1d724f733bed82a5c1aaa4c83c" x="300.140000" y="15.339063"/>
</g><g ><use style="fill: none; stroke: #000000; stroke-width: 0.500000; stroke-linejoin: round; stroke-linecap: butt;  opacity: 1.000000" xlink:href="#mbea78f1d724f733bed82a5c1aaa4c83c" x="367.100000" y="15.339063"/>
<use style="fill: none; stroke: #000000; stroke-width: 0.500000; stroke-linejoin: round; stroke-linecap: butt;  opacity: 1.000000" xlink:href="#mbea78f1d724f733bed82a5c1aaa4c83c" x="367.100000" y="15.339063"/>
</g><defs><path id="m6a3c8e7ab7aa0c8502aaa2afb1db58b8" d="M0.000000 0.000000L-0.000000 2.000000"/></defs>
<g ><use style="fill: none; stroke: #000000; stroke-width: 0.500000; stroke-linejoin: round; stroke-linecap: butt;  opacity: 1.000000" xlink:href="#m6a3c8e7ab7aa0c8502aaa2afb1db58b8" x="45.692000" y="15.339063"/>
<use style="fill: none; stroke: #000000; stroke-width: 0.500000; stroke-linejoin: round; stroke-linecap: butt;  opacity: 1.000000" xlink:href="#m6a3c8e7ab7aa0c8502aaa2afb1db58b8" x="45.692000" y="15.339063"/>
</g><g ><use style="fill: none; stroke: #000000; stroke-width: 0.500000; stroke-linejoin: round; stroke-linecap: butt;  opacity: 1.000000" xlink:href="#m6a3c8e7ab7aa0c8502aaa2afb1db58b8" x="59.084000" y="15.339063"/>
<use style="fill: none; stroke: #000000; stroke-width: 0.500000; stroke-linejoin: round; stroke-linecap: butt;  opacity: 1.000000" xlink:href="#m6a3c8e7ab7aa0c8502aaa2afb1db58b8" x="59.084000" y="15.339063"/>
</g><g ><use style="fill: none; stroke: #000000; stroke-width: 0.500000; stroke-linejoin: round; stroke-linecap: butt;  opacity: 1.000000" xlink:href="#m6a3c8e7ab7aa0c8502aaa2afb1db58b8" x="72.476000" y="15.339063"/>
<use style="fill: none; stroke: #000000; stroke-width: 0.500000; stroke-linejoin: round; stroke-linecap: butt;  opacity: 1.000000" xlink:href="#m6a3c8e7ab7aa0c8502aaa2afb1db58b8" x="72.476000" y="15.339063"/>
</g><g ><use style="fill: none; stroke: #000000; stroke-width: 0.500000; stroke-linejoin: round; stroke-linecap: butt;  opacity: 1.000000" xlink:href="#m6a3c8e7ab7aa0c8502aaa2afb1db58b8" x="85.868000" y="15.339063"/>
<use style="fill: none; stroke: #000000; stroke-width: 0.500000; stroke-linejoin: round; stroke-linecap: butt;  opacity: 1.000000" xlink:href="#m6a3c8e7ab7aa0c8502aaa2afb1db58b8" x="85.868000" y="15.339063"/>
</g><g ><use style="fill: none; stroke: #000000; stroke-width: 0.500000; stroke-linejoin: round; stroke-linecap: butt;  opacity: 1.000000" xlink:href="#m6a3c8e7ab7aa0c8502aaa2afb1db58b8" x="112.652000" y="15.339063"/>
<use style="fill: none; stroke: #000000; stroke-width: 0.500000; stroke-linejoin: round; stroke-linecap: butt;  opacity: 1.000000" xlink:href="#m6a3c8e7ab7aa0c8502aaa2afb1db58b8" x="112.652000" y="15.339063"/>
</g><g ><use style="fill: none; stroke: #000000; stroke-width: 0.500000; stroke-linejoin: round; stroke-linecap: butt;  opacity: 1.000000" xlink:href="#m6a3c8e7ab7aa0c8502aaa2afb1db58b8" x="126.044000" y="15.339063"/>
<use style="fill: none; stroke: #000000; stroke-width: 0.500000; stroke-linejoin: round; stroke-linecap: butt;  opacity: 1.000000" xlink:href="#m6a3c8e7ab7aa0c8502aaa2afb1db58b8" x="126.044000" y="15.339063"/>
</g><g ><use style="fill: none; stroke: #000000; stroke-width: 0.500000; stroke-linejoin: round; stroke-linecap: butt;  opacity: 1.000000" xlink:href="#m6a3c8e7ab7aa0c8502aaa2afb1db58b8" x="139.436000" y="15.339063"/>
<use style="fill: none; stroke: #000000; stroke-width: 0.500000; stroke-linejoin: round; stroke-linecap: butt;  opacity: 1.000000" xlink:href="#m6a3c8e7ab7aa0c8502aaa2afb1db58b8" x="139.436000" y="15.339063"/>
</g><g ><use style="fill: none; stroke: #000000; stroke-width: 0.500000; stroke-linejoin: round; stroke-linecap: butt;  opacity: 1.000000" xlink:href="#m6a3c8e7ab7aa0c8502aaa2afb1db58b8" x="152.828000" y="15.339063"/>
<use style="fill: none; stroke: #000000; stroke-width: 0.500000; stroke-linejoin: round; stroke-linecap: butt;  opacity: 1.000000" xlink:href="#m6a3c8e7ab7aa0c8502aaa2afb1db58b8" x="152.828000" y="15.339063"/>
</g><g ><use style="fill: none; stroke: #000000; stroke-width: 0.500000; stroke-linejoin: round; stroke-linecap: butt;  opacity: 1.000000" xlink:href="#m6a3c8e7ab7aa0c8502aaa2afb1db58b8" x="179.612000" y="15.339063"/>
<use style="fill: none; stroke: #000000; stroke-width: 0.500000; stroke-linejoin: round; stroke-linecap: butt;  opacity: 1.000000" xlink:href="#m6a3c8e7ab7aa0c8502aaa2afb1db58b8" x="179.612000" y="15.339063"/>
</g><g ><use style="fill: none; stroke: #000000; stroke-width: 0.500000; stroke-linejoin: round; stroke-linecap: butt;  opacity: 1.000000" xlink:href="#m6a3c8e7ab7aa0c8502aaa2afb1db58b8" x="193.004000" y="15.339063"/>
<use style="fill: none; stroke: #000000; stroke-width: 0.500000; stroke-linejoin: round; stroke-linecap: butt;  opacity: 1.000000" xlink:href="#m6a3c8e7ab7aa0c8502aaa2afb1db58b8" x="193.004000" y="15.339063"/>
</g><g ><use style="fill: none; stroke: #000000; stroke-width: 0.500000; stroke-linejoin: round; stroke-linecap: butt;  opacity: 1.000000" xlink:href="#m6a3c8e7ab7aa0c8502aaa2afb1db58b8" x="206.396000" y="15.339063"/>
<use style="fill: none; stroke: #000000; stroke-width: 0.500000; stroke-linejoin: round; stroke-linecap: butt;  opacity: 1.000000" xlink:href="#m6a3c8e7ab7aa0c8502aaa2afb1db58b8" x="206.396000" y="15.339063"/>
</g><g ><use style="fill: none; stroke: #000000; stroke-width: 0.500000; stroke-linejoin: round; stroke-linecap: butt;  opacity: 1.000000" xlink:href="#m6a3c8e7ab7aa0c8502aaa2afb1db58b8" x="219.788000" y="15.339063"/>
<use style="fill: none; stroke: #000000; stroke-width: 0.500000; stroke-linejoin: round; stroke-linecap: butt;  opacity: 1.000000" xlink:href="#m6a3c8e7ab7aa0c8502aaa2afb1db58b8" x="219.788000" y="15.339063"/>
</g><g ><use style="fill: none; stroke: #000000; stroke-width: 0.500000; stroke-linejoin: round; stroke-linecap: butt;  opacity: 1.000000" xlink:href="#m6a3c8e7ab7aa0c8502aaa2afb1db58b8" x="246.572000" y="15.339063"/>
<use style="fill: none; stroke: #000000; stroke-width: 0.500000; stroke-linejoin: round; stroke-linecap: butt;  opacity: 1.000000" xlink:href="#m6a3c8e7ab7aa0c8502aaa2afb1db58b8" x="246.572000" y="15.339063"/>
</g><g ><use style="fill: none; stroke: #000000; stroke-width: 0.500000; stroke-linejoin: round; stroke-linecap: butt;  opacity: 1.000000" xlink:href="#m6a3c8e7ab7aa0c8502aaa2afb1db58b8" x="259.964000" y="15.339063"/>
<use style="fill: none; stroke: #000000; stroke-width: 0.500000; stroke-linejoin: round; stroke-linecap: butt;  opacity: 1.000000" xlink:href="#m6a3c8e7ab7aa0c8502aaa2afb1db58b8" x="259.964000" y="15.339063"/>
</g><g ><use style="fill: none; stroke: #000000; stroke-width: 0.500000; stroke-linejoin: round; stroke-linecap: butt;  opacity: 1.000000" xlink:href="#m6a3c8e7ab7aa0c8502aaa2afb1db58b8" x="273.356000" y="15.339063"/>
<use style="fill: none; stroke: #000000; stroke-width: 0.500000; stroke-linejoin: round; stroke-linecap: butt;  opacity: 1.000000" xlink:href="#m6a3c8e7ab7aa0c8502aaa2afb1db58b8" x="273.356000" y="15.339063"/>
</g><g ><use style="fill: none; stroke: #000000; stroke-width: 0.500000; stroke-linejoin: round; stroke-linecap: butt;  opacity: 1.000000" xlink:href="#m6a3c8e7ab7aa0c8502aaa2afb1db58b8" x="286.748000" y="15.339063"/>
<use style="fill: none; stroke: #000000; stroke-width: 0.500000; stroke-linejoin: round; stroke-linecap: butt;  opacity: 1.000000" xlink:href="#m6a3c8e7ab7aa0c8502aaa2afb1db58b8" x="286.748000" y="15.339063"/>
</g><g ><use style="fill: none; stroke: #000000; stroke-width: 0.500000; stroke-linejoin: round; stroke-linecap: butt;  opacity: 1.000000" xlink:href="#m6a3c8e7ab7aa0c8502aaa2afb1db58b8" x="313.532000" y="15.339063"/>
<use style="fill: none; stroke: #000000; stroke-width: 0.500000; stroke-linejoin: round; stroke-linecap: butt;  opacity: 1.000000" xlink:href="#m6a3c8e7ab7aa0c8502aaa2afb1db58b8" x="313.532000" y="15.339063"/>
</g><g ><use style="fill: none; stroke: #000000; stroke-width: 0.500000; stroke-linejoin: round; stroke-linecap: butt;  opacity: 1.000000" xlink:href="#m6a3c8e7ab7aa0c8502aaa2afb1db58b8" x="326.924000" y="15.339063"/>
<use style="fill: none; stroke: #000000; stroke-width: 0.500000; stroke-linejoin: round; stroke-linecap: butt;  opacity: 1.000000" xlink:href="#m6a3c8e7ab7aa0c8502aaa2afb1db58b8" x="326.924000" y="15.339063"/>
</g><g ><use style="fill: none; stroke: #000000; stroke-width: 0.500000; stroke-linejoin: round; stroke-linecap: butt;  opacity: 1.000000" xlink:href="#m6a3c8e7ab7aa0c8502aaa2afb1db58b8" x="340.316000" y="15.339063"/>
<use style="fill: none; stroke: #000000; stroke-width: 0.500000; stroke-linejoin: round; stroke-linecap: butt;  opacity: 1.000000" xlink:href="#m6a3c8e7ab7aa0c8502aaa2afb1db58b8" x="340.316000" y="15.339063"/>
</g><g ><use style="fill: none; stroke: #000000; stroke-width: 0.500000; stroke-linejoin: round; stroke-linecap: butt;  opacity: 1.000000" xlink:href="#m6a3c8e7ab7aa0c8502aaa2afb1db58b8" x="353.708000" y="15.339063"/>
<use style="fill: none; stroke: #000000; stroke-width: 0.500000; stroke-linejoin: round; stroke-linecap: butt;  opacity: 1.000000" xlink:href="#m6a3c8e7ab7aa0c8502aaa2afb1db58b8" x="353.708000" y="15.339063"/>
</g></g>
<g id="mpl_toolkits.axisartist.axis_artist4">
<g id="line2d9">
<path style="fill: none; stroke: #000000; stroke-width: 1.000000; stroke-linejoin: round; stroke-linecap: square;  opacity: 1.000000"  d="M32.300000 303.339063L32.300000 15.339063"/>
</g>
<defs><path id="m3400efa6b1638b3fea9e19e898273957" d="M0.000000 0.000000L4.000000 0.000000"/></defs>
<g ><use style="fill: none; stroke: #000000; stroke-width: 0.500000; stroke-linejoin: round; stroke-linecap: butt;  opacity: 1.000000" xlink:href="#m3400efa6b1638b3fea9e19e898273957" x="32.300000" y="303.339063"/>
<use style="fill: none; stroke: #000000; stroke-width: 0.500000; stroke-linejoin: round; stroke-linecap: butt;  opacity: 1.000000" xlink:href="#m3400efa6b1638b3fea9e19e898273957" x="32.300000" y="303.339063"/>
</g><g ><use style="fill: none; stroke: #000000; stroke-width: 0.500000; stroke-linejoin: round; stroke-linecap: butt;  opacity: 1.000000" xlink:href="#m3400efa6b1638b3fea9e19e898273957" x="32.300000" y="207.339063"/>
<use style="fill: none; stroke: #000000; stroke-width: 0.500000; stroke-linejoin: round; stroke-linecap: butt;  opacity: 1.000000" xlink:href="#m3400efa6b1638b3fea9e19e898273957" x="32.300000" y="207.339063"/>
</g><g ><use style="fill: none; stroke: #000000; stroke-width: 0.500000; stroke-linejoin: round; stroke-linecap: butt;  opacity: 1.000000" xlink:href="#m3400efa6b1638b3fea9e19e898273957" x="32.300000" y="111.339063"/>
<use style="fill: none; stroke: #000000; stroke-width: 0.500000; stroke-linejoin: round; stroke-linecap: butt;  opacity: 1.000000" xlink:href="#m3400efa6b1638b3fea9e19e898273957" x="32.300000" y="111.339063"/>
</g><g ><use style="fill: none; stroke: #000000; stroke-width: 0.500000; stroke-linejoin: round; stroke-linecap: butt;  opacity: 1.000000" xlink:href="#m3400efa6b1638b3fea9e19e898273957" x="32.300000" y="15.339063"/>
<use style="fill: none; stroke: #000000; stroke-width: 0.500000; stroke-linejoin: round; stroke-linecap: butt;  opacity: 1.000000" xlink:href="#m3400efa6b1638b3fea9e19e898273957" x="32.300000" y="15.339063"/>
</g><g id="text7">
<defs>
<path id="c_ed3e21196fb739f392806f09ca0594ef" d="M10.687500 -12.406250l10.312500 0.000000l0.000000 12.406250l-10.312500 0.000000z"/>
</defs>
<g style="fill: #000000; opacity: 1.000000" transform="translate(10.800000,307.706250)scale(0.120000)">
<use xlink:href="#c_7a2040fe3b94fcd41d0a72c84e93b115"/>
<use xlink:href="#c_ed3e21196fb739f392806f09ca0594ef" x="63.623047"/>
<use xlink:href="#c_7a2040fe3b94fcd41d0a72c84e93b115" x="95.410156"/>
</g>
</g>
<g id="text8">
<g style="fill: #000000; opacity: 1.000000" transform="translate(11.112500,211.706250)scale(0.120000)">
<use xlink:href="#c_7a2040fe3b94fcd41d0a72c84e93b115"/>
<use xlink:href="#c_ed3e21196fb739f392806f09ca0594ef" x="63.623047"/>
<use xlink:href="#c_42baa63129a918535c52adb20d687ea7" x="95.410156"/>
</g>
</g>
<g id="text9">
<g style="fill: #000000; opacity: 1.000000" transform="translate(11.206250,115.706250)scale(0.120000)">
<use xlink:href="#c_7a2040fe3b94fcd41d0a72c84e93b115"/>
<use xlink:href="#c_ed3e21196fb739f392806f09ca0594ef" x="63.623047"/>
<use xlink:href="#c_ed3f3ed3ebfbd18bcb9c012009a68ad1" x="95.410156"/>
</g>
</g>
<g id="text10">
<defs>
<path id="c_3dcfa38a02242cb63ec6726c6e70be7a" d="M40.578125 -39.312500q7.078125 1.515625 11.046875 6.312500q3.984375 4.781250 3.984375 11.812500q0.000000 10.781250 -7.421875 16.703125q-7.421875 5.906250 -21.093750 5.906250q-4.578125 0.000000 -9.437500 -0.906250q-4.859375 -0.906250 -10.031250 -2.718750l0.000000 -9.515625q4.093750 2.390625 8.968750 3.609375q4.890625 1.218750 10.218750 1.218750q9.265625 0.000000 14.125000 -3.656250q4.859375 -3.656250 4.859375 -10.640625q0.000000 -6.453125 -4.515625 -10.078125q-4.515625 -3.640625 -12.562500 -3.640625l-8.500000 0.000000l0.000000 -8.109375l8.890625 0.000000q7.265625 0.000000 11.125000 -2.906250q3.859375 -2.906250 3.859375 -8.375000q0.000000 -5.609375 -3.984375 -8.609375q-3.968750 -3.015625 -11.390625 -3.015625q-4.062500 0.000000 -8.703125 0.890625q-4.640625 0.875000 -10.203125 2.718750l0.000000 -8.781250q5.625000 -1.562500 10.531250 -2.343750q4.906250 -0.781250 9.250000 -0.781250q11.234375 0.000000 17.765625 5.109375q6.546875 5.093750 6.546875 13.781250q0.000000 6.062500 -3.468750 10.234375q-3.468750 4.171875 -9.859375 5.781250"/>
</defs>
<g style="fill: #000000; opacity: 1.000000" transform="translate(10.971875,19.706250)scale(0.120000)">
<use xlink:href="#c_7a2040fe3b94fcd41d0a72c84e93b115"/>
<use xlink:href="#c_ed3e21196fb739f392806f09ca0594ef" x="63.623047"/>
<use xlink:href="#c_3dcfa38a02242cb63ec6726c6e70be7a" x="95.410156"/>
</g>
</g>
<defs><path id="mb39cfcf7402899e54c4d755745537394" d="M0.000000 0.000000L2.000000 0.000000"/></defs>
<g ><use style="fill: none; stroke: #000000; stroke-width: 0.500000; stroke-linejoin: round; stroke-linecap: butt;  opacity: 1.000000" xlink:href="#mb39cfcf7402899e54c4d755745537394" x="32.300000" y="279.339063"/>
<use style="fill: none; stroke: #000000; stroke-width: 0.500000; stroke-linejoin: round; stroke-linecap: butt;  opacity: 1.000000" xlink:href="#mb39cfcf7402899e54c4d755745537394" x="32.300000" y="279.339063"/>
</g><g ><use style="fill: none; stroke: #000000; stroke-width: 0.500000; stroke-linejoin: round; stroke-linecap: butt;  opacity: 1.000000" xlink:href="#mb39cfcf7402899e54c4d755745537394" x="32.300000" y="255.339063"/>
<use style="fill: none; stroke: #000000; stroke-width: 0.500000; stroke-linejoin: round; stroke-linecap: butt;  opacity: 1.000000" xlink:href="#mb39cfcf7402899e54c4d755745537394" x="32.300000" y="255.339063"/>
</g><g ><use style="fill: none; stroke: #000000; stroke-width: 0.500000; stroke-linejoin: round; stroke-linecap: butt;  opacity: 1.000000" xlink:href="#mb39cfcf7402899e54c4d755745537394" x="32.300000" y="231.339063"/>
<use style="fill: none; stroke: #000000; stroke-width: 0.500000; stroke-linejoin: round; stroke-linecap: butt;  opacity: 1.000000" xlink:href="#mb39cfcf7402899e54c4d755745537394" x="32.300000" y="231.339063"/>
</g><g ><use style="fill: none; stroke: #000000; stroke-width: 0.500000; stroke-linejoin: round; stroke-linecap: butt;  opacity: 1.000000" xlink:href="#mb39cfcf7402899e54c4d755745537394" x="32.300000" y="183.339063"/>
<use style="fill: none; stroke: #000000; stroke-width: 0.500000; stroke-linejoin: round; stroke-linecap: butt;  opacity: 1.000000" xlink:href="#mb39cfcf7402899e54c4d755745537394" x="32.300000" y="183.339063"/>
</g><g ><use style="fill: none; stroke: #000000; stroke-width: 0.500000; stroke-linejoin: round; stroke-linecap: butt;  opacity: 1.000000" xlink:href="#mb39cfcf7402899e54c4d755745537394" x="32.300000" y="159.339063"/>
<use style="fill: none; stroke: #000000; stroke-width: 0.500000; stroke-linejoin: round; stroke-linecap: butt;  opacity: 1.000000" xlink:href="#mb39cfcf7402899e54c4d755745537394" x="32.300000" y="159.339063"/>
</g><g ><use style="fill: none; stroke: #000000; stroke-width: 0.500000; stroke-linejoin: round; stroke-linecap: butt;  opacity: 1.000000" xlink:href="#mb39cfcf7402899e54c4d755745537394" x="32.300000" y="135.339063"/>
<use style="fill: none; stroke: #000000; stroke-width: 0.500000; stroke-linejoin: round; stroke-linecap: butt;  opacity: 1.000000" xlink:href="#mb39cfcf7402899e54c4d755745537394" x="32.300000" y="135.339063"/>
</g><g ><use style="fill: none; stroke: #000000; stroke-width: 0.500000; stroke-linejoin: round; stroke-linecap: butt;  opacity: 1.000000" xlink:href="#mb39cfcf7402899e54c4d755745537394" x="32.300000" y="87.339063"/>
<use style="fill: none; stroke: #000000; stroke-width: 0.500000; stroke-linejoin: round; stroke-linecap: butt;  opacity: 1.000000" xlink:href="#mb39cfcf7402899e54c4d755745537394" x="32.300000" y="87.339063"/>
</g><g ><use style="fill: none; stroke: #000000; stroke-width: 0.500000; stroke-linejoin: round; stroke-linecap: butt;  opacity: 1.000000" xlink:href="#mb39cfcf7402899e54c4d755745537394" x="32.300000" y="63.339063"/>
<use style="fill: none; stroke: #000000; stroke-width: 0.500000; stroke-linejoin: round; stroke-linecap: butt;  opacity: 1.000000" xlink:href="#mb39cfcf7402899e54c4d755745537394" x="32.300000" y="63.339063"/>
</g><g ><use style="fill: none; stroke: #000000; stroke-width: 0.500000; stroke-linejoin: round; stroke-linecap: butt;  opacity: 1.000000" xlink:href="#mb39cfcf7402899e54c4d755745537394" x="32.300000" y="39.339063"/>
<use style="fill: none; stroke: #000000; stroke-width: 0.500000; stroke-linejoin: round; stroke-linecap: butt;  opacity: 1.000000" xlink:href="#mb39cfcf7402899e54c4d755745537394" x="32.300000" y="39.339063"/>
</g></g>
<g id="legend1">
<g id="line2d10">
<path style="fill: none; stroke: #0000ff; stroke-width: 1.500000; stroke-linejoin: round; stroke-linecap: square;  opacity: 1.000000"  d="M249.140000 33.899688L269.300000 33.899688"/>
</g>
<g id="line2d11">
</g>
<g id="text11">
<defs>
<path id="c_3260b495c6402fff66ed286585579e9c" d="M2.781250 18.796875q0.000000 -0.578125 0.093750 -0.781250l14.703125 -59.031250q0.437500 -1.421875 1.578125 -2.296875q1.156250 -0.875000 2.625000 -0.875000q1.265625 0.000000 2.140625 0.765625q0.890625 0.750000 0.890625 2.015625q0.000000 0.296875 -0.031250 0.468750q-0.031250 0.171875 -0.078125 0.359375l-5.906250 23.390625q-0.968750 4.156250 -0.968750 7.171875q0.000000 3.718750 1.750000 6.109375q1.765625 2.390625 5.328125 2.390625q7.265625 0.000000 12.796875 -9.078125q0.046875 -0.093750 0.062500 -0.140625q0.031250 -0.062500 0.031250 -0.156250l7.218750 -29.000000q0.343750 -1.328125 1.562500 -2.265625q1.218750 -0.953125 2.640625 -0.953125q1.171875 0.000000 2.078125 0.781250q0.906250 0.781250 0.906250 2.046875q0.000000 0.578125 -0.109375 0.781250l-7.171875 28.812500q-0.734375 2.828125 -0.734375 4.875000q0.000000 4.296875 2.937500 4.296875q3.125000 0.000000 4.703125 -3.859375q1.593750 -3.859375 2.765625 -9.328125q0.187500 -0.578125 0.828125 -0.578125l1.171875 0.000000q0.390625 0.000000 0.656250 0.312500q0.265625 0.312500 0.265625 0.656250q-1.750000 6.984375 -3.828125 11.218750q-2.078125 4.218750 -6.765625 4.218750q-3.312500 0.000000 -5.875000 -1.906250q-2.562500 -1.906250 -3.343750 -5.125000q-2.500000 3.125000 -5.843750 5.078125q-3.343750 1.953125 -7.046875 1.953125q-6.250000 0.000000 -9.828125 -2.937500l-5.078125 20.218750q-0.281250 1.421875 -1.453125 2.296875q-1.171875 0.875000 -2.640625 0.875000q-1.218750 0.000000 -2.125000 -0.765625q-0.906250 -0.750000 -0.906250 -2.015625"/>
<path id="c_7bbc93c01755cdeb977d08bdfb9ce616" d="M7.515625 -13.281250q-0.828125 0.000000 -1.375000 -0.625000q-0.531250 -0.640625 -0.531250 -1.375000q0.000000 -0.828125 0.531250 -1.406250q0.546875 -0.593750 1.375000 -0.593750l62.796875 0.000000q0.734375 0.000000 1.265625 0.593750q0.546875 0.578125 0.546875 1.406250q0.000000 0.734375 -0.546875 1.375000q-0.531250 0.625000 -1.265625 0.625000zM7.515625 -32.718750q-0.828125 0.000000 -1.375000 -0.578125q-0.531250 -0.593750 -0.531250 -1.421875q0.000000 -0.734375 0.531250 -1.359375q0.546875 -0.640625 1.375000 -0.640625l62.796875 0.000000q0.734375 0.000000 1.265625 0.640625q0.546875 0.625000 0.546875 1.359375q0.000000 0.828125 -0.546875 1.421875q-0.531250 0.578125 -1.265625 0.578125z"/>
<path id="c_7d09e94cce4bdf71f2297f5bbc354b76" d="M8.687500 -11.375000q1.031250 2.921875 3.156250 5.328125q2.125000 2.390625 5.031250 3.734375q2.906250 1.328125 6.031250 1.328125q7.218750 0.000000 9.953125 -5.609375q2.734375 -5.609375 2.734375 -13.625000q0.000000 -3.468750 -0.125000 -5.828125q-0.109375 -2.375000 -0.656250 -4.562500q-0.921875 -3.515625 -3.250000 -6.156250q-2.312500 -2.640625 -5.687500 -2.640625q-3.359375 0.000000 -5.781250 1.031250q-2.421875 1.015625 -3.937500 2.390625q-1.500000 1.359375 -2.671875 2.875000q-1.171875 1.515625 -1.468750 1.609375l-1.125000 0.000000q-0.250000 0.000000 -0.625000 -0.312500q-0.359375 -0.312500 -0.359375 -0.609375l0.000000 -33.406250q0.000000 -0.234375 0.312500 -0.500000q0.328125 -0.281250 0.671875 -0.281250l0.296875 0.000000q6.734375 3.234375 14.296875 3.234375q7.421875 0.000000 14.312500 -3.234375l0.296875 0.000000q0.343750 0.000000 0.625000 0.250000q0.296875 0.250000 0.296875 0.531250l0.000000 0.937500q0.000000 0.484375 -0.187500 0.484375q-3.421875 4.546875 -8.578125 7.093750q-5.156250 2.531250 -10.671875 2.531250q-4.000000 0.000000 -8.203125 -1.125000l0.000000 18.890625q3.328125 -2.687500 5.937500 -3.828125q2.609375 -1.156250 6.671875 -1.156250q5.515625 0.000000 9.875000 3.187500q4.375000 3.171875 6.718750 8.281250q2.343750 5.093750 2.343750 10.406250q0.000000 6.015625 -2.953125 11.140625q-2.953125 5.125000 -8.031250 8.156250q-5.078125 3.031250 -11.031250 3.031250q-4.937500 0.000000 -9.062500 -2.531250q-4.125000 -2.546875 -6.500000 -6.843750q-2.359375 -4.296875 -2.359375 -9.140625q0.000000 -2.250000 1.453125 -3.656250q1.468750 -1.421875 3.671875 -1.421875q2.203125 0.000000 3.687500 1.453125q1.484375 1.437500 1.484375 3.625000q0.000000 2.156250 -1.484375 3.640625q-1.484375 1.484375 -3.687500 1.484375q-0.343750 0.000000 -0.781250 -0.062500q-0.437500 -0.078125 -0.640625 -0.125000"/>
<path id="c_01bd98e0cf1b355b13e73042b8c9bdee" d="M9.906250 18.015625q0.000000 -0.437500 0.390625 -0.828125q3.625000 -3.468750 5.625000 -8.015625q2.000000 -4.531250 2.000000 -9.562500l0.000000 -1.218750q-1.609375 1.609375 -4.000000 1.609375q-2.296875 0.000000 -3.906250 -1.609375q-1.609375 -1.609375 -1.609375 -3.906250q0.000000 -2.343750 1.609375 -3.906250q1.609375 -1.562500 3.906250 -1.562500q3.562500 0.000000 5.078125 3.296875q1.515625 3.296875 1.515625 7.296875q0.000000 5.562500 -2.234375 10.562500q-2.218750 5.015625 -6.265625 9.015625q-0.390625 0.203125 -0.640625 0.203125q-0.484375 0.000000 -0.984375 -0.453125q-0.484375 -0.437500 -0.484375 -0.921875"/>
<path id="c_75c38898ea241ebcbd0918e2320a1d61" d="M8.687500 -6.109375q2.687500 4.593750 10.796875 4.593750q3.515625 0.000000 6.687500 -1.187500q3.171875 -1.203125 5.250000 -3.593750q2.078125 -2.390625 2.078125 -5.812500q0.000000 -2.593750 -1.859375 -4.250000q-1.859375 -1.656250 -4.546875 -2.250000l-5.406250 -1.062500q-3.718750 -0.937500 -6.109375 -3.468750q-2.390625 -2.546875 -2.390625 -6.156250q0.000000 -4.437500 2.406250 -7.859375q2.421875 -3.421875 6.375000 -5.218750q3.953125 -1.812500 8.203125 -1.812500q4.546875 0.000000 8.125000 2.171875q3.593750 2.171875 3.593750 6.421875q0.000000 2.296875 -1.296875 4.062500q-1.281250 1.750000 -3.578125 1.750000q-1.328125 0.000000 -2.281250 -0.859375q-0.937500 -0.859375 -0.937500 -2.171875q0.000000 -1.171875 0.656250 -2.265625q0.656250 -1.109375 1.750000 -1.765625q1.109375 -0.656250 2.281250 -0.656250q-0.890625 -2.156250 -3.312500 -3.125000q-2.406250 -0.984375 -5.187500 -0.984375q-2.546875 0.000000 -5.093750 1.031250q-2.531250 1.031250 -4.078125 3.015625q-1.531250 1.968750 -1.531250 4.656250q0.000000 1.796875 1.265625 3.171875q1.281250 1.359375 3.140625 1.953125l5.812500 1.171875q2.781250 0.578125 5.093750 2.078125q2.328125 1.484375 3.656250 3.765625q1.343750 2.265625 1.343750 5.187500q0.000000 3.718750 -2.078125 7.328125q-2.062500 3.609375 -5.093750 5.765625q-5.328125 3.609375 -13.031250 3.609375q-5.328125 0.000000 -9.781250 -2.437500q-4.437500 -2.453125 -4.437500 -7.281250q0.000000 -2.734375 1.578125 -4.750000q1.593750 -2.031250 4.328125 -2.031250q1.625000 0.000000 2.718750 0.984375q1.093750 0.968750 1.093750 2.578125q0.000000 2.296875 -1.718750 4.000000q-1.703125 1.703125 -3.984375 1.703125z"/>
<path id="c_1210e7f4d85518601ea3049211d562d0" d="M4.984375 -0.000000l0.000000 -2.687500q0.000000 -0.250000 0.187500 -0.531250l15.531250 -17.187500q3.515625 -3.812500 5.703125 -6.390625q2.203125 -2.593750 4.343750 -5.968750q2.156250 -3.375000 3.406250 -6.859375q1.250000 -3.484375 1.250000 -7.390625q0.000000 -4.109375 -1.515625 -7.843750q-1.515625 -3.734375 -4.515625 -5.984375q-3.000000 -2.250000 -7.250000 -2.250000q-4.343750 0.000000 -7.812500 2.625000q-3.468750 2.609375 -4.890625 6.750000q0.390625 -0.093750 1.078125 -0.093750q2.250000 0.000000 3.828125 1.515625q1.593750 1.515625 1.593750 3.906250q0.000000 2.296875 -1.593750 3.890625q-1.578125 1.578125 -3.828125 1.578125q-2.343750 0.000000 -3.937500 -1.625000q-1.578125 -1.640625 -1.578125 -3.843750q0.000000 -3.765625 1.406250 -7.046875q1.421875 -3.296875 4.078125 -5.859375q2.671875 -2.578125 6.015625 -3.937500q3.343750 -1.375000 7.093750 -1.375000q5.718750 0.000000 10.640625 2.421875q4.937500 2.421875 7.812500 6.843750q2.890625 4.406250 2.890625 10.328125q0.000000 4.343750 -1.906250 8.250000q-1.906250 3.906250 -4.890625 7.109375q-2.968750 3.187500 -7.609375 7.250000q-4.640625 4.046875 -6.093750 5.406250l-11.328125 10.890625l9.609375 0.000000q7.078125 0.000000 11.843750 -0.109375q4.765625 -0.125000 5.046875 -0.375000q1.171875 -1.265625 2.406250 -9.234375l2.921875 0.000000l-2.828125 17.828125z"/>
</defs>
<g id="mathtext1">
<g style="fill: #000000" transform="translate(285.140000,42.939688)">
<use xlink:href="#c_3260b495c6402fff66ed286585579e9c" transform="translate(0.000000,-4.421875)scale(0.144000)"/>
<use xlink:href="#c_7bbc93c01755cdeb977d08bdfb9ce616" transform="translate(11.190671,-4.421875)scale(0.144000)"/>
<use xlink:href="#c_7d09e94cce4bdf71f2297f5bbc354b76" transform="translate(23.279962,-4.421875)scale(0.144000)"/>
<use xlink:href="#c_01bd98e0cf1b355b13e73042b8c9bdee" transform="translate(30.475275,-4.421875)scale(0.144000)"/>
<use xlink:href="#c_75c38898ea241ebcbd0918e2320a1d61" transform="translate(39.790024,-4.421875)scale(0.144000)"/>
<use xlink:href="#c_7bbc93c01755cdeb977d08bdfb9ce616" transform="translate(49.048367,-4.421875)scale(0.144000)"/>
<use xlink:href="#c_1210e7f4d85518601ea3049211d562d0" transform="translate(61.137659,-4.421875)scale(0.144000)"/>
</g>
</g>
</g>
<g id="line2d12">
<path style="fill: none; stroke: #008000; stroke-width: 1.500000; stroke-linejoin: round; stroke-linecap: square;  opacity: 1.000000"  d="M249.140000 55.740313L269.300000 55.740313"/>
</g>
<g id="line2d13">
</g>
<g id="text12">
<defs>
<path id="c_6733a1659a14e49f8feaf83505a1ef98" d="M11.281250 -4.203125q2.734375 3.218750 9.515625 3.218750q3.812500 0.000000 7.109375 -2.578125q3.296875 -2.593750 5.109375 -6.343750q2.093750 -4.250000 2.671875 -9.062500q0.593750 -4.812500 0.593750 -11.937500q-1.703125 4.046875 -4.906250 6.640625q-3.203125 2.578125 -7.343750 2.578125q-5.812500 0.000000 -10.390625 -3.140625q-4.562500 -3.156250 -7.000000 -8.296875q-2.437500 -5.156250 -2.437500 -10.968750q0.000000 -6.000000 2.734375 -11.203125q2.734375 -5.203125 7.562500 -8.250000q4.843750 -3.062500 10.984375 -3.062500q6.062500 0.000000 10.140625 3.296875q4.078125 3.296875 6.218750 8.500000q2.156250 5.203125 3.000000 11.015625q0.859375 5.812500 0.859375 11.468750q0.000000 7.718750 -2.828125 15.750000q-2.828125 8.031250 -8.468750 13.406250q-5.640625 5.375000 -13.609375 5.375000q-5.906250 0.000000 -10.015625 -2.781250q-4.093750 -2.796875 -4.093750 -8.406250q0.000000 -2.046875 1.390625 -3.437500q1.390625 -1.390625 3.453125 -1.390625q2.000000 0.000000 3.390625 1.390625q1.390625 1.390625 1.390625 3.437500q0.000000 1.953125 -1.421875 3.375000q-1.406250 1.406250 -3.359375 1.406250zM24.421875 -24.312500q4.093750 0.000000 6.703125 -2.750000q2.609375 -2.765625 3.781250 -6.859375q1.171875 -4.109375 1.171875 -8.171875l0.000000 -1.906250l0.000000 -0.390625q0.000000 -7.515625 -2.203125 -13.421875q-2.187500 -5.906250 -8.390625 -5.906250q-3.953125 0.000000 -6.421875 1.734375q-2.453125 1.734375 -3.625000 4.609375q-1.171875 2.875000 -1.500000 6.156250q-0.312500 3.265625 -0.312500 7.125000q0.000000 5.671875 0.531250 9.671875q0.546875 4.000000 2.937500 7.062500q2.390625 3.046875 7.328125 3.046875"/>
<path id="c_4b4b135d81e9b78c16b841add313c4b1" d="M9.515625 -7.718750q2.343750 3.421875 6.296875 5.078125q3.968750 1.656250 8.500000 1.656250q5.812500 0.000000 8.250000 -4.953125q2.453125 -4.953125 2.453125 -11.250000q0.000000 -2.828125 -0.515625 -5.656250q-0.515625 -2.843750 -1.734375 -5.281250q-1.218750 -2.437500 -3.343750 -3.906250q-2.125000 -1.468750 -5.203125 -1.468750l-6.640625 0.000000q-0.875000 0.000000 -0.875000 -0.921875l0.000000 -0.875000q0.000000 -0.781250 0.875000 -0.781250l5.515625 -0.453125q3.515625 0.000000 5.828125 -2.625000q2.328125 -2.640625 3.406250 -6.421875q1.078125 -3.781250 1.078125 -7.203125q0.000000 -4.781250 -2.250000 -7.859375q-2.250000 -3.078125 -6.843750 -3.078125q-3.796875 0.000000 -7.265625 1.437500q-3.468750 1.437500 -5.515625 4.375000q0.187500 -0.046875 0.328125 -0.078125q0.156250 -0.031250 0.343750 -0.031250q2.250000 0.000000 3.765625 1.562500q1.515625 1.562500 1.515625 3.765625q0.000000 2.156250 -1.515625 3.718750q-1.515625 1.562500 -3.765625 1.562500q-2.187500 0.000000 -3.750000 -1.562500q-1.562500 -1.562500 -1.562500 -3.718750q0.000000 -4.296875 2.578125 -7.468750q2.593750 -3.171875 6.671875 -4.812500q4.078125 -1.640625 8.171875 -1.640625q3.031250 0.000000 6.390625 0.906250q3.375000 0.906250 6.109375 2.593750q2.734375 1.687500 4.468750 4.328125q1.734375 2.625000 1.734375 6.000000q0.000000 4.203125 -1.875000 7.765625q-1.875000 3.562500 -5.156250 6.156250q-3.265625 2.578125 -7.171875 3.843750q4.343750 0.828125 8.250000 3.281250q3.906250 2.437500 6.265625 6.250000q2.375000 3.796875 2.375000 8.203125q0.000000 5.515625 -3.031250 9.984375q-3.015625 4.468750 -7.953125 6.984375q-4.937500 2.515625 -10.406250 2.515625q-4.687500 0.000000 -9.406250 -1.796875q-4.703125 -1.781250 -7.703125 -5.343750q-3.000000 -3.562500 -3.000000 -8.546875q0.000000 -2.484375 1.656250 -4.140625q1.656250 -1.656250 4.156250 -1.656250q1.609375 0.000000 2.953125 0.750000q1.343750 0.750000 2.093750 2.125000q0.765625 1.359375 0.765625 2.921875q0.000000 2.453125 -1.718750 4.109375q-1.703125 1.656250 -4.093750 1.656250z"/>
</defs>
<g id="mathtext2">
<g style="fill: #000000" transform="translate(285.140000,64.780313)">
<use xlink:href="#c_3260b495c6402fff66ed286585579e9c" transform="translate(0.000000,-4.421875)scale(0.144000)"/>
<use xlink:href="#c_7bbc93c01755cdeb977d08bdfb9ce616" transform="translate(11.190671,-4.421875)scale(0.144000)"/>
<use xlink:href="#c_6733a1659a14e49f8feaf83505a1ef98" transform="translate(23.279962,-4.421875)scale(0.144000)"/>
<use xlink:href="#c_01bd98e0cf1b355b13e73042b8c9bdee" transform="translate(30.475275,-4.421875)scale(0.144000)"/>
<use xlink:href="#c_75c38898ea241ebcbd0918e2320a1d61" transform="translate(39.790024,-4.421875)scale(0.144000)"/>
<use xlink:href="#c_7bbc93c01755cdeb977d08bdfb9ce616" transform="translate(49.048367,-4.421875)scale(0.144000)"/>
<use xlink:href="#c_4b4b135d81e9b78c16b841add313c4b1" transform="translate(61.137659,-4.421875)scale(0.144000)"/>
</g>
</g>
</g>
<g id="line2d14">
<path style="fill: none; stroke: #ff0000; stroke-width: 1.500000; stroke-linejoin: round; stroke-linecap: square;  opacity: 1.000000"  d="M249.140000 77.580938L269.300000 77.580938"/>
</g>
<g id="line2d15">
</g>
<g id="text13">
<defs>
<path id="c_f6bfecfef5ea966626c74db776cc6a54" d="M2.781250 -16.500000l0.000000 -3.515625l30.906250 -46.093750q0.343750 -0.500000 1.031250 -0.500000l1.468750 0.000000q1.125000 0.000000 1.125000 1.125000l0.000000 45.468750l9.812500 0.000000l0.000000 3.515625l-9.812500 0.000000l0.000000 9.812500q0.000000 2.046875 2.921875 2.609375q2.937500 0.562500 6.781250 0.562500l0.000000 3.515625l-27.531250 0.000000l0.000000 -3.515625q3.859375 0.000000 6.781250 -0.562500q2.937500 -0.562500 2.937500 -2.609375l0.000000 -9.812500zM6.109375 -20.015625l23.671875 0.000000l0.000000 -35.406250z"/>
</defs>
<g id="mathtext3">
<g style="fill: #000000" transform="translate(285.140000,86.620938)">
<use xlink:href="#c_3260b495c6402fff66ed286585579e9c" transform="translate(0.000000,-4.421875)scale(0.144000)"/>
<use xlink:href="#c_7bbc93c01755cdeb977d08bdfb9ce616" transform="translate(11.190671,-4.421875)scale(0.144000)"/>
<use xlink:href="#c_6733a1659a14e49f8feaf83505a1ef98" transform="translate(23.279962,-4.421875)scale(0.144000)"/>
<use xlink:href="#c_01bd98e0cf1b355b13e73042b8c9bdee" transform="translate(30.475275,-4.421875)scale(0.144000)"/>
<use xlink:href="#c_75c38898ea241ebcbd0918e2320a1d61" transform="translate(39.790024,-4.421875)scale(0.144000)"/>
<use xlink:href="#c_7bbc93c01755cdeb977d08bdfb9ce616" transform="translate(49.048367,-4.421875)scale(0.144000)"/>
<use xlink:href="#c_f6bfecfef5ea966626c74db776cc6a54" transform="translate(61.137659,-4.421875)scale(0.144000)"/>
</g>
</g>
</g>
<g id="line2d16">
<path style="fill: none; stroke: #00bfbf; stroke-width: 1.500000; stroke-linejoin: round; stroke-linecap: square;  opacity: 1.000000"  d="M249.140000 99.421563L269.300000 99.421563"/>
</g>
<g id="line2d17">
</g>
<g id="text14">
<defs>
<path id="c_e67b50107ce49b4ffc818ce612cf3095" d="M25.000000 2.203125q-6.203125 0.000000 -10.359375 -3.296875q-4.140625 -3.296875 -6.421875 -8.546875q-2.265625 -5.250000 -3.140625 -11.015625q-0.875000 -5.765625 -0.875000 -11.671875q0.000000 -7.906250 3.078125 -15.859375q3.078125 -7.968750 9.046875 -13.187500q5.984375 -5.234375 14.187500 -5.234375q3.421875 0.000000 6.375000 1.296875q2.953125 1.296875 4.640625 3.812500q1.687500 2.515625 1.687500 6.078125q0.000000 2.046875 -1.390625 3.437500q-1.390625 1.390625 -3.453125 1.390625q-1.953125 0.000000 -3.375000 -1.406250q-1.406250 -1.421875 -1.406250 -3.421875q0.000000 -1.953125 1.406250 -3.359375q1.421875 -1.421875 3.375000 -1.421875l0.546875 0.000000q-1.281250 -1.812500 -3.593750 -2.656250q-2.312500 -0.859375 -4.812500 -0.859375q-3.031250 0.000000 -5.593750 1.328125q-2.562500 1.312500 -4.609375 3.562500q-2.046875 2.234375 -3.421875 4.953125q-1.359375 2.703125 -2.125000 6.171875q-0.750000 3.468750 -0.953125 6.500000q-0.187500 3.015625 -0.187500 7.609375q1.750000 -4.109375 4.968750 -6.718750q3.234375 -2.609375 7.281250 -2.609375q4.453125 0.000000 8.109375 1.812500q3.656250 1.796875 6.296875 5.000000q2.640625 3.203125 4.031250 7.312500q1.390625 4.093750 1.390625 8.281250q0.000000 5.859375 -2.609375 11.171875q-2.609375 5.296875 -7.359375 8.421875q-4.734375 3.125000 -10.734375 3.125000M25.000000 -0.984375q3.859375 0.000000 6.203125 -1.750000q2.343750 -1.765625 3.437500 -4.656250q1.109375 -2.906250 1.375000 -5.859375q0.265625 -2.968750 0.265625 -7.265625q0.000000 -5.656250 -0.546875 -9.656250q-0.531250 -4.015625 -2.921875 -7.062500q-2.390625 -3.046875 -7.328125 -3.046875q-4.046875 0.000000 -6.656250 2.734375q-2.609375 2.734375 -3.812500 6.906250q-1.203125 4.171875 -1.203125 8.031250q0.000000 1.312500 0.109375 2.000000q0.000000 0.156250 -0.031250 0.250000q-0.015625 0.093750 -0.078125 0.234375q0.000000 4.296875 0.875000 8.703125q0.890625 4.390625 3.375000 7.421875q2.500000 3.015625 6.937500 3.015625"/>
</defs>
<g id="mathtext4">
<g style="fill: #000000" transform="translate(285.140000,108.461563)">
<use xlink:href="#c_3260b495c6402fff66ed286585579e9c" transform="translate(0.000000,-4.421875)scale(0.144000)"/>
<use xlink:href="#c_7bbc93c01755cdeb977d08bdfb9ce616" transform="translate(11.190671,-4.421875)scale(0.144000)"/>
<use xlink:href="#c_e67b50107ce49b4ffc818ce612cf3095" transform="translate(23.279962,-4.421875)scale(0.144000)"/>
<use xlink:href="#c_01bd98e0cf1b355b13e73042b8c9bdee" transform="translate(30.475275,-4.421875)scale(0.144000)"/>
<use xlink:href="#c_75c38898ea241ebcbd0918e2320a1d61" transform="translate(39.790024,-4.421875)scale(0.144000)"/>
<use xlink:href="#c_7bbc93c01755cdeb977d08bdfb9ce616" transform="translate(49.048367,-4.421875)scale(0.144000)"/>
<use xlink:href="#c_1210e7f4d85518601ea3049211d562d0" transform="translate(61.137659,-4.421875)scale(0.144000)"/>
</g>
</g>
</g>
<g id="line2d18">
<path style="fill: none; stroke: #bf00bf; stroke-width: 1.500000; stroke-linejoin: round; stroke-linecap: square;  opacity: 1.000000"  d="M249.140000 121.262188L269.300000 121.262188"/>
</g>
<g id="line2d19">
</g>
<g id="text15">
<defs>
<path id="c_1a459ac34855d27ec37ccb0e66298d36" d="M9.281250 -0.000000l0.000000 -3.515625q12.500000 0.000000 12.500000 -3.171875l0.000000 -52.500000q-5.171875 2.500000 -13.093750 2.500000l0.000000 -3.515625q12.265625 0.000000 18.515625 -6.406250l1.406250 0.000000q0.343750 0.000000 0.656250 0.281250q0.328125 0.265625 0.328125 0.609375l0.000000 59.031250q0.000000 3.171875 12.500000 3.171875l0.000000 3.515625z"/>
</defs>
<g id="mathtext5">
<g style="fill: #000000" transform="translate(285.140000,130.302188)">
<use xlink:href="#c_3260b495c6402fff66ed286585579e9c" transform="translate(0.000000,-4.421875)scale(0.144000)"/>
<use xlink:href="#c_7bbc93c01755cdeb977d08bdfb9ce616" transform="translate(11.190671,-4.421875)scale(0.144000)"/>
<use xlink:href="#c_1210e7f4d85518601ea3049211d562d0" transform="translate(23.279962,-4.421875)scale(0.144000)"/>
<use xlink:href="#c_01bd98e0cf1b355b13e73042b8c9bdee" transform="translate(30.475275,-4.421875)scale(0.144000)"/>
<use xlink:href="#c_75c38898ea241ebcbd0918e2320a1d61" transform="translate(39.790024,-4.421875)scale(0.144000)"/>
<use xlink:href="#c_7bbc93c01755cdeb977d08bdfb9ce616" transform="translate(49.048367,-4.421875)scale(0.144000)"/>
<use xlink:href="#c_1a459ac34855d27ec37ccb0e66298d36" transform="translate(61.137659,-4.421875)scale(0.144000)"/>
</g>
</g>
</g>
</g>
</g>
</g>
</svg>
